<svg xml:space="preserve" version="1.1" id="svg25" width="563.173" height="201.835" xmlns:xlink="http://www.w3.org/1999/xlink" xmlns="http://www.w3.org/2000/svg"><style id="style2">.st0{fill:#084059}</style><switch id="switch23" transform="translate(-158.998 -123.114)"><g id="g21"><g id="appliedAI"><path class="st0" d="M391.894 167.893h22.008v151.203h-22.008zm22.727-33.376c0 6.298-5.088 11.403-11.363 11.403-6.276 0-11.364-5.105-11.364-11.403s5.088-11.403 11.364-11.403c6.275 0 11.363 5.105 11.363 11.403m283.026 70.657h6.006v-39.861h-6.006zm-24.571-32.435 6.88 18.238h-13.76zm-18.402 32.435h6.225l3.167-8.518h18.02l3.221 8.518h6.17l-15.398-39.861h-6.006zm-24.106-5.57a9.338 9.338 0 0 1-3.085-2.129 9.894 9.894 0 0 1-2.048-3.195 10.33 10.33 0 0 1-.737-3.904c0-1.383.245-2.684.737-3.904a9.59 9.59 0 0 1 2.048-3.167 9.556 9.556 0 0 1 3.085-2.102c1.182-.51 2.465-.765 3.849-.765 1.383 0 2.666.265 3.85.792a9.635 9.635 0 0 1 3.058 2.13 9.854 9.854 0 0 1 2.02 3.167c.491 1.22.737 2.503.737 3.849 0 1.384-.246 2.685-.737 3.904a9.843 9.843 0 0 1-2.02 3.167 9.603 9.603 0 0 1-3.058 2.13c-1.184.528-2.467.792-3.85.792-1.384 0-2.667-.255-3.849-.765m8.736 4.86c1.802-.874 3.285-2.075 4.45-3.604v4.314h5.788v-43.137h-5.788v17.746c-1.128-1.455-2.593-2.602-4.395-3.44a13.265 13.265 0 0 0-5.652-1.256c-1.965 0-3.849.364-5.651 1.092a14.359 14.359 0 0 0-4.751 3.113c-1.365 1.347-2.448 2.958-3.249 4.832-.801 1.875-1.201 3.978-1.201 6.307 0 2.293.41 4.387 1.229 6.279.819 1.893 1.911 3.514 3.276 4.86a14.392 14.392 0 0 0 4.723 3.112 14.6 14.6 0 0 0 5.57 1.092c1.965 0 3.849-.436 5.651-1.31m-34.673-22.278c1.62 1.274 2.649 3.076 3.085 5.405h-18.619c.581-2.147 1.71-3.904 3.385-5.269 1.674-1.365 3.694-2.048 6.061-2.048 2.438 0 4.468.638 6.088 1.912m2.321 21.65a16.45 16.45 0 0 0 5.406-5.16l-4.86-2.894a10.46 10.46 0 0 1-3.413 3.44c-1.401.874-3.139 1.311-5.214 1.311-2.73 0-4.969-.719-6.717-2.157-1.747-1.438-2.839-3.358-3.276-5.761h24.79v-2.457c0-2.184-.382-4.195-1.146-6.034-.765-1.838-1.821-3.431-3.167-4.778-1.348-1.346-2.941-2.393-4.778-3.139-1.839-.746-3.85-1.12-6.034-1.12-2.184 0-4.204.401-6.061 1.201a15.476 15.476 0 0 0-4.86 3.277c-1.384 1.384-2.466 3.012-3.249 4.887-.783 1.875-1.174 3.904-1.174 6.088 0 2.148.373 4.15 1.12 6.006a14.057 14.057 0 0 0 3.194 4.833c1.383 1.365 3.031 2.439 4.942 3.221 1.911.783 4.049 1.174 6.416 1.174 3.202 0 5.897-.645 8.081-1.938m-35.983-33.991c.764.801 1.765 1.201 3.003 1.201 1.237 0 2.247-.4 3.031-1.201.782-.8 1.174-1.802 1.174-3.003s-.392-2.202-1.174-3.003c-.784-.801-1.794-1.202-3.031-1.202-1.201 0-2.193.401-2.976 1.202-.783.801-1.174 1.802-1.174 3.003s.382 2.203 1.147 3.003m.054 35.329h5.952v-29.486h-5.952zm-13.267 0h5.952v-43.028h-5.952zm-25.527-5.597a9.908 9.908 0 0 1-3.086-2.13 9.583 9.583 0 0 1-2.047-3.167 10.33 10.33 0 0 1-.737-3.904c0-1.346.245-2.629.737-3.849a9.593 9.593 0 0 1 2.047-3.167 9.941 9.941 0 0 1 3.086-2.13c1.182-.527 2.465-.792 3.849-.792 1.346 0 2.612.255 3.795.765a9.577 9.577 0 0 1 3.085 2.102 9.606 9.606 0 0 1 2.048 3.167c.491 1.22.737 2.521.737 3.904 0 1.384-.246 2.685-.737 3.904a9.91 9.91 0 0 1-2.048 3.195 9.358 9.358 0 0 1-3.085 2.129 9.486 9.486 0 0 1-3.795.765c-1.384 0-2.667-.264-3.849-.792m10.183 5.105a14.402 14.402 0 0 0 4.723-3.112c1.365-1.346 2.458-2.967 3.277-4.86.819-1.892 1.228-3.986 1.228-6.279 0-2.329-.401-4.432-1.201-6.307-.801-1.874-1.884-3.485-3.249-4.832a14.512 14.512 0 0 0-10.293-4.205c-2.039 0-3.959.446-5.761 1.338-1.802.892-3.267 2.102-4.395 3.631v-4.368h-5.734v41.28h5.734v-15.726c1.092 1.493 2.539 2.621 4.341 3.386 1.802.764 3.74 1.146 5.815 1.146a14.47 14.47 0 0 0 5.515-1.092m-46.932-5.105a9.915 9.915 0 0 1-3.085-2.13 9.583 9.583 0 0 1-2.047-3.167 10.33 10.33 0 0 1-.737-3.904c0-1.346.245-2.629.737-3.849a9.593 9.593 0 0 1 2.047-3.167 9.949 9.949 0 0 1 3.085-2.13c1.183-.527 2.466-.792 3.85-.792 1.346 0 2.612.255 3.795.765a9.588 9.588 0 0 1 3.085 2.102 9.606 9.606 0 0 1 2.048 3.167c.491 1.22.737 2.521.737 3.904 0 1.384-.246 2.685-.737 3.904a9.91 9.91 0 0 1-2.048 3.195 9.369 9.369 0 0 1-3.085 2.129 9.486 9.486 0 0 1-3.795.765c-1.384 0-2.667-.264-3.85-.792m10.184 5.105a14.402 14.402 0 0 0 4.723-3.112c1.365-1.346 2.457-2.967 3.276-4.86.82-1.892 1.229-3.986 1.229-6.279 0-2.329-.401-4.432-1.201-6.307-.801-1.874-1.884-3.485-3.249-4.832a14.512 14.512 0 0 0-10.293-4.205c-2.039 0-3.959.446-5.761 1.338-1.802.892-3.267 2.102-4.395 3.631v-4.368h-5.734v41.28h5.734v-15.726c1.092 1.493 2.539 2.621 4.341 3.386 1.802.764 3.74 1.146 5.815 1.146a14.47 14.47 0 0 0 5.515-1.092m-48.925-5.132c-.91-.728-1.365-1.729-1.365-3.004 0-1.455.591-2.584 1.775-3.385 1.182-.8 3.14-1.201 5.87-1.201h8.354v2.457a9.832 9.832 0 0 1-1.829 2.621 11.583 11.583 0 0 1-2.485 1.938c-.91.528-1.875.938-2.894 1.229a11.245 11.245 0 0 1-3.112.437c-1.966 0-3.404-.364-4.314-1.092m9.829 4.641c2.038-1.055 3.64-2.457 4.805-4.205v5.188h5.679v-18.238c0-1.783-.292-3.403-.874-4.86a10.122 10.122 0 0 0-2.566-3.74c-1.129-1.037-2.521-1.838-4.177-2.403-1.657-.563-3.541-.846-5.652-.846-3.167 0-5.888.638-8.163 1.911-2.276 1.275-4.141 2.876-5.597 4.805l5.242 3.058a9.53 9.53 0 0 1 3.385-3.467c1.42-.855 3.113-1.283 5.079-1.283 2.621 0 4.55.619 5.788 1.856 1.237 1.238 1.856 2.84 1.856 4.805v.492h-8.736c-4.15 0-7.399.865-9.747 2.594-2.348 1.729-3.522 4.122-3.522 7.18 0 1.238.227 2.394.682 3.467a7.763 7.763 0 0 0 1.993 2.785c.874.783 1.957 1.392 3.249 1.829 1.292.437 2.794.655 4.505.655 2.475 0 4.732-.528 6.771-1.583m180.187 33.638a10.052 10.052 0 0 1 3.321 2.079c.946.896 1.698 1.96 2.256 3.194.557 1.234.904 2.594 1.039 4.081h-22.307c.202-1.42.625-2.746 1.267-3.98a11.324 11.324 0 0 1 2.484-3.219 11.161 11.161 0 0 1 3.499-2.13c1.318-.507 2.737-.76 4.258-.76s2.915.245 4.183.735m3.422 23.296c2.028-1.217 3.802-3.042 5.323-5.475l-2.585-1.42c-1.082 2.028-2.468 3.549-4.158 4.563-1.69 1.014-3.769 1.521-6.235 1.521-1.623 0-3.118-.262-4.487-.786-1.369-.524-2.561-1.25-3.575-2.18a10.718 10.718 0 0 1-2.433-3.295c-.608-1.268-.963-2.662-1.065-4.183h25.4v-1.47c0-2.028-.347-3.895-1.039-5.603-.693-1.706-1.656-3.176-2.89-4.41-1.234-1.234-2.696-2.197-4.385-2.89-1.691-.693-3.516-1.039-5.476-1.039-2.096 0-4.022.372-5.779 1.115-1.758.744-3.279 1.758-4.563 3.042-1.285 1.285-2.282 2.806-2.991 4.563-.71 1.758-1.065 3.65-1.065 5.678s.337 3.896 1.014 5.602a13.39 13.39 0 0 0 2.864 4.462c1.234 1.267 2.738 2.256 4.512 2.966 1.775.709 3.778 1.064 6.008 1.064 3.042 0 5.577-.608 7.605-1.825m-42.941-23.575h5.272v17.288c0 2.671.575 4.639 1.724 5.907 1.149 1.267 2.873 1.901 5.171 1.901 1.183 0 2.197-.177 3.042-.532.845-.355 1.656-.888 2.434-1.597l-1.724-2.028c-.981 1.048-2.147 1.571-3.498 1.571-1.285 0-2.324-.397-3.118-1.191s-1.191-2.188-1.191-4.183V237.55h8.314v-2.535h-8.314v-7.858l-2.84 1.774v6.084h-5.272zm-13.029 23.752c1.689-1.097 2.973-2.509 3.853-4.233v5.323h2.737v-27.377h-2.788v15.261c0 1.419-.237 2.737-.71 3.954a9.444 9.444 0 0 1-2.002 3.169 9.345 9.345 0 0 1-3.042 2.104c-1.166.507-2.442.76-3.828.76-3.009 0-5.281-.904-6.819-2.712-1.538-1.808-2.307-4.216-2.307-7.225v-15.311h-2.839v15.311c0 3.955.989 7.047 2.966 9.278 1.977 2.231 4.892 3.346 8.746 3.346 2.332 0 4.342-.55 6.033-1.648m-40.762-23.752h5.273v17.288c0 2.671.574 4.639 1.724 5.907 1.148 1.267 2.872 1.901 5.171 1.901 1.183 0 2.197-.177 3.042-.532.844-.355 1.656-.888 2.433-1.597l-1.723-2.028c-.981 1.048-2.147 1.571-3.499 1.571-1.284 0-2.324-.397-3.117-1.191-.795-.794-1.192-2.188-1.192-4.183V237.55h8.315v-2.535h-8.315v-7.858l-2.839 1.774v6.084h-5.273zm-9.657-9.202c.489.525 1.123.786 1.901.786.777 0 1.419-.261 1.926-.786.507-.523.761-1.174.761-1.952 0-.743-.254-1.368-.761-1.875-.507-.507-1.149-.761-1.926-.761-.71 0-1.327.254-1.851.761s-.786 1.132-.786 1.875c0 .778.245 1.429.736 1.952m.481 34.044h2.839v-27.377h-2.839zm-23.726-24.842h5.272v17.288c0 2.671.575 4.639 1.724 5.907 1.149 1.267 2.873 1.901 5.171 1.901 1.183 0 2.197-.177 3.042-.532.845-.355 1.656-.888 2.434-1.597l-1.724-2.028c-.981 1.048-2.147 1.571-3.498 1.571-1.285 0-2.324-.397-3.118-1.191-.795-.794-1.191-2.188-1.191-4.183V237.55h8.314v-2.535h-8.314v-7.858l-2.84 1.774v6.084h-5.272zm-10.266 24.741c1.301-.439 2.391-1.031 3.27-1.774a7.393 7.393 0 0 0 2.003-2.637 7.817 7.817 0 0 0 .684-3.244c0-1.42-.296-2.569-.887-3.448a6.826 6.826 0 0 0-2.307-2.129c-.946-.541-2.02-.955-3.219-1.242a52.625 52.625 0 0 0-3.625-.735 264.054 264.054 0 0 1-3.143-.609c-1.014-.203-1.91-.482-2.687-.836-.778-.355-1.403-.803-1.876-1.344-.474-.54-.71-1.25-.71-2.129 0-1.555.515-2.814 1.546-3.777 1.031-.964 2.797-1.445 5.298-1.445 2.028 0 3.752.389 5.172 1.166 1.419.778 2.602 1.758 3.549 2.94l2.23-2.028a16.006 16.006 0 0 0-4.537-3.32c-1.741-.862-3.879-1.293-6.414-1.293-1.622 0-3.05.211-4.284.634-1.234.423-2.256.988-3.067 1.698a6.87 6.87 0 0 0-1.825 2.484 7.512 7.512 0 0 0-.609 2.991c0 1.353.287 2.451.862 3.296a6.31 6.31 0 0 0 2.282 2.028c.946.507 2.01.904 3.194 1.191 1.183.288 2.383.533 3.599.735 1.082.203 2.138.415 3.169.634 1.031.22 1.943.507 2.738.862.794.355 1.427.829 1.901 1.419.473.592.71 1.344.71 2.257 0 1.723-.634 3.11-1.901 4.157-1.268 1.048-3.136 1.572-5.603 1.572-2.467 0-4.529-.465-6.185-1.395-1.656-.929-3.025-2.086-4.106-3.473l-2.282 2.079c1.284 1.521 2.923 2.797 4.918 3.828 1.994 1.03 4.545 1.546 7.655 1.546 1.69 0 3.186-.22 4.487-.659m-48.188.101h2.839v-15.26c0-1.419.253-2.738.76-3.954a9.92 9.92 0 0 1 2.079-3.169 9.493 9.493 0 0 1 3.118-2.104c1.199-.507 2.492-.76 3.878-.76 3.076 0 5.442.904 7.098 2.712 1.656 1.808 2.484 4.217 2.484 7.225v15.31h2.89v-15.31c0-1.96-.287-3.718-.862-5.273-.575-1.554-1.386-2.881-2.433-3.98-1.048-1.098-2.316-1.934-3.803-2.51-1.487-.574-3.143-.861-4.968-.861-2.4 0-4.496.557-6.287 1.673-1.792 1.115-3.143 2.552-4.056 4.309v-5.425h-2.737zm-12.294-34.044c.489.525 1.123.786 1.901.786.777 0 1.42-.261 1.927-.786.506-.523.76-1.174.76-1.952 0-.743-.254-1.368-.76-1.875-.507-.507-1.15-.761-1.927-.761-.71 0-1.327.254-1.851.761s-.785 1.132-.785 1.875c0 .778.244 1.429.735 1.952m.481 34.044h2.839v-27.377h-2.839zm262.287 27.854a10.056 10.056 0 0 1 3.321 2.078 10.056 10.056 0 0 1 2.256 3.195c.558 1.234.904 2.594 1.039 4.081h-22.307c.203-1.42.625-2.746 1.268-3.98a11.292 11.292 0 0 1 2.484-3.219 11.168 11.168 0 0 1 3.498-2.13c1.318-.507 2.738-.76 4.259-.76 1.521 0 2.915.245 4.182.735m3.422 23.296c2.028-1.217 3.803-3.042 5.324-5.476l-2.586-1.419c-1.082 2.028-2.467 3.549-4.157 4.563-1.691 1.014-3.769 1.521-6.236 1.521-1.622 0-3.118-.262-4.487-.786-1.369-.524-2.56-1.25-3.574-2.18a10.714 10.714 0 0 1-2.434-3.296c-.608-1.267-.963-2.661-1.064-4.182h25.4v-1.47c0-2.028-.347-3.896-1.04-5.603-.693-1.706-1.656-3.176-2.889-4.41-1.235-1.234-2.696-2.197-4.386-2.89-1.69-.693-3.516-1.04-5.475-1.04-2.096 0-4.023.373-5.78 1.116-1.758.744-3.279 1.758-4.563 3.042-1.285 1.285-2.281 2.806-2.991 4.563-.71 1.757-1.065 3.65-1.065 5.678s.338 3.896 1.014 5.602a13.378 13.378 0 0 0 2.865 4.462c1.233 1.267 2.737 2.256 4.512 2.965 1.774.71 3.777 1.065 6.008 1.065 3.042 0 5.577-.608 7.604-1.825m-47.301-1.8a11.162 11.162 0 0 1-3.625-2.459 11.247 11.247 0 0 1-2.408-3.675c-.576-1.403-.862-2.898-.862-4.487s.286-3.084.862-4.487a11.262 11.262 0 0 1 2.408-3.676 11.52 11.52 0 0 1 3.625-2.484c1.385-.608 2.89-.913 4.512-.913 1.588 0 3.067.297 4.436.888a10.888 10.888 0 0 1 3.549 2.433c.996 1.032 1.782 2.256 2.357 3.676.575 1.419.862 2.94.862 4.563 0 1.69-.287 3.237-.862 4.639-.575 1.403-1.361 2.611-2.357 3.625a10.74 10.74 0 0 1-3.549 2.382c-1.369.576-2.848.862-4.436.862-1.622 0-3.127-.295-4.512-.887m10.266 2.56c1.741-.709 3.236-1.698 4.487-2.965 1.25-1.268 2.222-2.771 2.915-4.513.693-1.74 1.04-3.641 1.04-5.703 0-2.028-.364-3.904-1.09-5.628a14.234 14.234 0 0 0-2.992-4.512 13.816 13.816 0 0 0-4.461-3.017c-1.707-.726-3.558-1.09-5.552-1.09-1.082 0-2.18.145-3.295.431-1.115.288-2.172.71-3.169 1.268a12.873 12.873 0 0 0-2.738 2.053 10.804 10.804 0 0 0-2.053 2.789v-5.983h-2.788v37.517h2.839v-15.97a10.387 10.387 0 0 0 2.079 2.712 13.455 13.455 0 0 0 5.83 3.245c1.081.287 2.146.431 3.194.431 2.095 0 4.013-.355 5.754-1.065m-46.033-2.535a10.73 10.73 0 0 1-3.549-2.382c-.998-1.014-1.784-2.222-2.358-3.625-.575-1.402-.862-2.949-.862-4.639 0-1.623.287-3.144.862-4.563.574-1.42 1.36-2.644 2.358-3.676a10.877 10.877 0 0 1 3.549-2.433c1.368-.591 2.847-.888 4.436-.888 1.588 0 3.067.297 4.436.888a11.179 11.179 0 0 1 3.574 2.433c1.014 1.032 1.808 2.256 2.383 3.676.574 1.419.862 2.94.862 4.563 0 1.656-.288 3.186-.862 4.588-.575 1.403-1.361 2.62-2.358 3.65a10.54 10.54 0 0 1-3.549 2.408c-1.368.576-2.864.862-4.486.862-1.589 0-3.068-.286-4.436-.862m10.089 2.485c1.74-.743 3.244-1.757 4.512-3.042a14.231 14.231 0 0 0 2.991-4.512c.726-1.724 1.09-3.583 1.09-5.577 0-2.028-.364-3.904-1.09-5.628a14.02 14.02 0 0 0-3.017-4.512 14.026 14.026 0 0 0-4.512-3.017c-1.724-.726-3.599-1.09-5.627-1.09-2.028 0-3.904.364-5.628 1.09a13.747 13.747 0 0 0-4.487 3.017 14.231 14.231 0 0 0-2.991 4.512c-.727 1.724-1.09 3.6-1.09 5.628 0 2.062.355 3.963 1.065 5.703.71 1.742 1.698 3.245 2.966 4.513a13.577 13.577 0 0 0 4.486 2.965c1.724.71 3.617 1.065 5.679 1.065 2.028 0 3.911-.372 5.653-1.115m-37.797.557h2.789v-14.601c0-3.582.667-6.227 2.002-7.934 1.335-1.707 3.321-2.56 5.958-2.56.709 0 1.334.084 1.875.253.541.169.997.389 1.369.659l1.369-2.636c-1.115-.642-2.62-.964-4.512-.964-2.163 0-3.929.5-5.298 1.496-1.369.997-2.341 2.459-2.915 4.386v-5.476h-2.637zm-15.412-1.09c1.69-1.098 2.974-2.509 3.853-4.233v5.323h2.738v-27.377h-2.789v15.26c0 1.42-.236 2.738-.709 3.955a9.472 9.472 0 0 1-2.003 3.169 9.345 9.345 0 0 1-3.042 2.104c-1.166.507-2.442.76-3.828.76-3.008 0-5.281-.904-6.819-2.712-1.538-1.808-2.306-4.216-2.306-7.225v-15.311h-2.839v15.311c0 3.955.988 7.047 2.965 9.278 1.978 2.231 4.893 3.346 8.746 3.346 2.332 0 4.343-.55 6.033-1.648m-34.855-23.473a10.045 10.045 0 0 1 3.321 2.078 10.04 10.04 0 0 1 2.256 3.195c.558 1.234.904 2.594 1.04 4.081h-22.308c.203-1.42.625-2.746 1.268-3.98a11.292 11.292 0 0 1 2.484-3.219 11.168 11.168 0 0 1 3.498-2.13c1.318-.507 2.738-.76 4.259-.76 1.521 0 2.915.245 4.182.735m3.423 23.296c2.027-1.217 3.802-3.042 5.323-5.476l-2.586-1.419c-1.082 2.028-2.467 3.549-4.157 4.563-1.69 1.014-3.769 1.521-6.236 1.521-1.622 0-3.118-.262-4.487-.786-1.369-.524-2.56-1.25-3.574-2.18a10.714 10.714 0 0 1-2.434-3.296c-.608-1.267-.963-2.661-1.064-4.182h25.4v-1.47c0-2.028-.347-3.896-1.039-5.603-.694-1.706-1.657-3.176-2.89-4.41-1.235-1.234-2.696-2.197-4.386-2.89-1.69-.693-3.515-1.04-5.475-1.04-2.096 0-4.023.373-5.78 1.116-1.758.744-3.279 1.758-4.563 3.042-1.285 1.285-2.281 2.806-2.991 4.563-.71 1.757-1.065 3.65-1.065 5.678s.338 3.896 1.014 5.602a13.393 13.393 0 0 0 2.865 4.462c1.233 1.267 2.737 2.256 4.512 2.965 1.774.71 3.777 1.065 6.008 1.065 3.042 0 5.577-.608 7.605-1.825m-55.717 1.267h2.788v-14.601c0-3.582.667-6.227 2.003-7.934 1.334-1.707 3.32-2.56 5.957-2.56.709 0 1.334.084 1.875.253.541.169.997.389 1.369.659l1.369-2.636c-1.115-.642-2.619-.964-4.512-.964-2.163 0-3.929.5-5.298 1.496-1.369.997-2.341 2.459-2.915 4.386v-5.476h-2.636zm-26.338-3.042a10.74 10.74 0 0 1-3.549-2.382c-.997-1.014-1.783-2.222-2.357-3.625-.575-1.402-.862-2.949-.862-4.639 0-1.623.287-3.144.862-4.563.574-1.42 1.36-2.644 2.357-3.676a10.888 10.888 0 0 1 3.549-2.433c1.369-.591 2.847-.888 4.436-.888s3.068.297 4.437.888a11.19 11.19 0 0 1 3.574 2.433c1.014 1.032 1.808 2.256 2.383 3.676.574 1.419.862 2.94.862 4.563 0 1.656-.288 3.186-.862 4.588-.575 1.403-1.361 2.62-2.358 3.65a10.54 10.54 0 0 1-3.549 2.408c-1.369.576-2.864.862-4.487.862-1.589 0-3.067-.286-4.436-.862m10.089 2.485c1.741-.743 3.245-1.757 4.513-3.042a14.231 14.231 0 0 0 2.991-4.512c.726-1.724 1.09-3.583 1.09-5.577 0-2.028-.364-3.904-1.09-5.628a14.02 14.02 0 0 0-3.017-4.512 14.037 14.037 0 0 0-4.512-3.017c-1.724-.726-3.6-1.09-5.628-1.09-2.027 0-3.903.364-5.627 1.09a13.747 13.747 0 0 0-4.487 3.017 14.214 14.214 0 0 0-2.991 4.512c-.727 1.724-1.09 3.6-1.09 5.628 0 2.062.355 3.963 1.064 5.703.71 1.742 1.699 3.245 2.966 4.513a13.581 13.581 0 0 0 4.487 2.965c1.724.71 3.616 1.065 5.678 1.065 2.028 0 3.912-.372 5.653-1.115m-39.215-24.285h5.374v24.842h2.89v-24.842h7.96v-2.535h-7.96v-2.636c0-1.555.084-2.805.253-3.752.169-.946.507-1.673 1.014-2.18.507-.507 1.217-.844 2.13-1.014.912-.169 2.112-.253 3.599-.253h.964v-2.738h-1.167c-1.893 0-3.464.144-4.714.431-1.251.287-2.249.803-2.992 1.546-.744.744-1.259 1.758-1.546 3.042-.288 1.285-.431 2.907-.431 4.867v2.687h-5.374z" id="path4"/><g id="g18"><path class="st0" d="M384.798 238.363c-.506-43.474-35.887-78.688-79.326-78.688-43.754 0-79.351 35.72-79.351 79.627 0 43.905 35.597 79.624 79.351 79.624 10.931 0 21.522-2.194 31.479-6.514 5.578-2.423 8.145-8.924 5.732-14.524-2.415-5.597-8.897-8.176-14.473-5.751-7.179 3.117-14.831 4.698-22.738 4.698-31.617 0-57.336-25.808-57.336-57.533 0-31.726 25.719-57.536 57.336-57.536 31.616 0 57.335 25.81 57.335 57.536 0 .168.042.325.05.492v79.303h22.011v-80.734z" id="path6"/><path d="M317.675 238.363c-.505-43.474-35.887-78.688-79.326-78.688-43.754 0-79.351 35.72-79.351 79.627 0 43.905 35.597 79.624 79.351 79.624 10.932 0 21.522-2.194 31.479-6.514 5.578-2.423 8.145-8.924 5.732-14.524-2.414-5.597-8.897-8.176-14.472-5.751-7.18 3.117-14.832 4.698-22.739 4.698-31.616 0-57.336-25.808-57.336-57.533 0-31.726 25.72-57.536 57.336-57.536s57.335 25.81 57.335 57.536c0 .168.042.325.05.492v79.303h22.011v-80.734z" style="fill:#18a5a7" id="path8"/><defs id="defs11"><path id="SVGID_1_" d="M224.121 157.674v163.422h162.747V157.674zm93.624 161.313c-.282.043-.568.069-.851.11h-21.16v-24.119a55.83 55.83 0 0 0 9.738.858c4.134 0 8.249-.463 12.273-1.363z"/></defs><clipPath id="SVGID_00000081609027875309579640000011808746105314992790_"><use xlink:href="#SVGID_1_" style="overflow:visible" id="use13" x="0" y="0" width="100%" height="100%"/></clipPath><path style="fill:#084059" d="M384.798 238.363c-.506-43.474-35.887-78.688-79.326-78.688-43.754 0-79.351 35.72-79.351 79.627 0 43.905 35.597 79.624 79.351 79.624 10.931 0 21.522-2.194 31.479-6.514 5.578-2.423 8.145-8.924 5.732-14.524-2.415-5.597-8.897-8.176-14.473-5.751-7.179 3.117-14.831 4.698-22.738 4.698-31.617 0-57.336-25.808-57.336-57.533 0-31.726 25.719-57.536 57.336-57.536 31.616 0 57.335 25.81 57.335 57.536 0 .168.042.325.05.492v79.303h22.011v-80.734z" clip-path="url(#SVGID_00000081609027875309579640000011808746105314992790_)" id="path16"/></g></g></g></switch></svg>
