<svg xmlns:xlink="http://www.w3.org/1999/xlink" width="1344" height="768" viewBox="0 0 1008 576" xmlns="http://www.w3.org/2000/svg"><defs><style>*{stroke-linejoin:round;stroke-linecap:butt}</style></defs><g id="figure_1"><path d="M0 576h1008V0H0z" style="fill:none" id="patch_1"/><g id="axes_1"><path d="M0 446.098v16.374l1.009.25 1.009.24 1.009.232 1.009.222 1.009.211 1.01.202 1.008.19 1.01.18 1.008.168 1.01.157 1.008.144 1.01.133 1.008.12 1.01.106 1.008.094 1.01.08 1.008.066 1.01.052 1.008.037 1.01.024 1.008.008 1.01-.007 1.008-.022 1.01-.037 1.008-.053 1.01-.069 1.008-.085 1.01-.1 1.008-.117 1.01-.133 1.008-.15 1.01-.165 1.008-.181 1.01-.198 1.008-.213 1.01-.23 1.008-.247 1.01-.262 1.008-.28 1.01-.296 1.008-.315 1.01-.333 1.008-.352 1.01-.373 1.008-.394 1.01-.416 1.008-.439 1.01-.463 1.008-.488 1.01-.513 1.008-.54 1.01-.565 1.008-.593 1.01-.621 1.008-.649 1.01-.676 1.009-.705 1.009-.734 1.009-.762 1.009-.791 1.009-.82 1.009-.85 1.009-.877 1.009-.908 1.009-.936 1.009-.966 1.009-.994 1.009-1.024 1.009-1.053 1.009-1.081 1.009-1.111 1.009-1.14 1.009-1.168 1.009-1.196 1.009-1.226 1.009-1.254 1.009-1.282 1.009-1.31 1.009-1.34 1.009-1.366 1.009-1.394 1.009-1.422 1.009-1.45 1.009-1.476 1.009-1.504 1.009-1.531 1.009-1.558L88.793 418l1.009-1.611 1.009-1.637 1.009-1.663 1.009-1.69 1.009-1.714 1.009-1.74 1.009-1.765 1.009-1.79 1.009-1.816 1.009-1.84 1.009-1.864 1.009-1.888 1.009-1.912 1.009-1.936 1.009-1.96 1.009-1.982 1.009-2.006 1.009-2.028 1.009-2.05 1.009-2.074 1.009-2.095 1.009-2.117 1.009-2.139 1.009-2.16 1.009-2.18 1.009-2.203 1.009-2.222 1.009-2.242 1.01-2.263 1.008-2.282 1.01-2.302 1.008-2.32 1.01-2.34 1.008-2.358 1.01-2.376 1.008-2.395 1.01-2.412 1.008-2.429 1.01-2.446 1.008-2.463 1.01-2.479 1.008-2.495 1.01-2.51 1.008-2.526 1.01-2.54 1.008-2.556 1.01-2.569 1.008-2.583 1.01-2.596 1.008-2.609 1.01-2.622 1.008-2.634 1.01-2.645 1.008-2.657 1.01-2.668 1.008-2.678 1.01-2.689 1.008-2.698 1.01-2.707 1.008-2.716 1.01-2.724 1.008-2.733 1.01-2.74 1.008-2.746 1.01-2.754 1.008-2.759 1.01-2.765 1.008-2.77 1.01-2.776 1.008-2.779 1.01-2.783 1.008-2.787 1.01-2.79 1.008-2.792 1.01-2.794 1.008-2.796 1.01-2.797 1.008-2.797 1.01-2.798 1.009-2.798 1.009-2.797 1.009-2.796 1.009-2.794 1.009-2.793 1.009-2.79 1.009-2.787 1.009-2.783 1.009-2.78 1.009-2.776 1.009-2.771 1.009-2.767 1.009-2.76 1.009-2.755 1.009-2.748 1.009-2.742 1.009-2.734 1.009-2.727 1.009-2.719 1.009-2.71 1.009-2.701 1.009-2.692 1.009-2.683 1.009-2.672 1.009-2.662 1.009-2.65 1.009-2.64 1.009-2.627 1.009-2.615 1.009-2.603 1.009-2.59 1.009-2.576 1.009-2.562 1.009-2.549 1.009-2.533 1.009-2.519 1.009-2.503 1.009-2.487 1.009-2.47 1.009-2.455 1.009-2.437 1.009-2.42 1.009-2.401 1.009-2.383 1.009-2.365 1.009-2.345 1.009-2.326 1.009-2.306 1.009-2.286 1.009-2.265 1.009-2.243 1.009-2.222 1.009-2.2 1.009-2.178L224 88.786l1.009-2.132 1.009-2.107 1.009-2.084 1.009-2.06 1.009-2.034 1.01-2.01 1.008-1.984 1.01-1.958 1.008-1.932 1.01-1.905 1.008-1.879 1.01-1.851 1.008-1.825 1.01-1.796 1.008-1.77 1.01-1.74 1.008-1.713 1.01-1.684 1.008-1.655 1.01-1.627 1.008-1.598 1.01-1.569 1.008-1.54 1.01-1.51 1.008-1.48 1.01-1.452 1.008-1.421 1.01-1.392 1.008-1.362 1.01-1.333 1.008-1.302 1.01-1.273 1.008-1.242 1.01-1.213 1.008-1.182 1.01-1.153 1.008-1.122 1.01-1.092 1.008-1.062 1.01-1.032 1.008-1.002 1.01-.972 1.008-.941 1.01-.912 1.008-.881 1.01-.851 1.008-.822 1.01-.792 1.008-.761 1.01-.732 1.008-.703 1.01-.672 1.008-.644 1.01-.613 1.008-.585 1.01-.555 1.009-.526 1.009-.497 1.009-.469 1.009-.439 1.009-.41 1.009-.383 1.009-.354 1.009-.326 1.009-.298 1.009-.27 1.009-.243 1.009-.215 1.009-.188 1.009-.16 1.009-.134 1.009-.107 1.009-.08 1.009-.054 1.009-.029 1.009-.002 1.009.023 1.009.05 1.009.073 1.009.1 1.009.123 1.009.148 1.009.172 1.009.196 1.009.22 1.009.244 1.009.266 1.009.29 1.009.312 1.009.335 1.009.357 1.009.38 1.009.4 1.009.423 1.009.445 1.009.465 1.009.487 1.009.508 1.009.53 1.009.55 1.009.572 1.009.594 1.009.617 1.009.64 1.009.666 1.009.693 1.009.722 1.009.756 1.009.794 1.009.838 1.009.886 1.009.937 1.009.99 1.009 1.039 1.009 1.086 1.009 1.13 1.01 1.17 1.008 1.205 1.01 1.239 1.008 1.27 1.01 1.302 1.008 1.33 1.01 1.357 1.008 1.384 1.01 1.41 1.008 1.436 1.01 1.461 1.008 1.485 1.01 1.51 1.008 1.532 1.01 1.556 1.008 1.579 1.01 1.6 1.008 1.624 1.01 1.645 1.008 1.666 1.01 1.686 1.008 1.708 1.01 1.728 1.008 1.747 1.01 1.768 1.008 1.786 1.01 1.806 1.008 1.824 1.01 1.842 1.008 1.86 1.01 1.878 1.008 1.895 1.01 1.912 1.008 1.928 1.01 1.945 1.008 1.96 1.01 1.976 1.008 1.991 1.01 2.006 1.008 2.02 1.01 2.035 1.008 2.048 1.01 2.061 1.008 2.075 1.01 2.087 1.008 2.1 1.01 2.112 1.008 2.123 1.01 2.134 1.008 2.146 1.01 2.155 1.009 2.166 1.009 2.176 1.009 2.185 1.009 2.195 1.009 2.203 1.009 2.21 1.009 2.22 1.009 2.227 1.009 2.234 1.009 2.24 1.009 2.248 1.009 2.253 1.009 2.26 1.009 2.264 1.009 2.27 1.009 2.274 1.009 2.278 1.009 2.282 1.009 2.286 1.009 2.289 1.009 2.291 1.009 2.294 1.009 2.296 1.009 2.298 1.009 2.3 1.009 2.299 1.009 2.3 1.009 2.301 1.009 2.3 1.009 2.3 1.009 2.3 1.009 2.297 1.009 2.296 1.009 2.294 1.009 2.292 1.009 2.289 1.009 2.286 1.009 2.282 1.009 2.279 1.009 2.274 1.009 2.27 1.009 2.265 1.009 2.26 1.009 2.254 1.009 2.249 1.009 2.242 1.009 2.236 1.009 2.228 1.009 2.222 1.009 2.213 1.009 2.206 1.009 2.198 1.009 2.189 1.009 2.18 1.009 2.17 1.009 2.162 1.009 2.15 1.009 2.142 1.009 2.13 1.009 2.12 1.01 2.108 1.008 2.097 1.01 2.085 1.008 2.073 1.01 2.06 1.008 2.048 1.01 2.035 1.008 2.021 1.01 2.008 1.008 1.994 1.01 1.98 1.008 1.965 1.01 1.95 1.008 1.936 1.01 1.92 1.008 1.905 1.01 1.888 1.008 1.873 1.01 1.856 1.008 1.84 1.01 1.823 1.008 1.805 1.01 1.788 1.008 1.77 1.01 1.754 1.008 1.734 1.01 1.716 1.008 1.698 1.01 1.679 1.008 1.66 1.01 1.64 1.008 1.62 1.01 1.602 1.008 1.581 1.01 1.561 1.008 1.541 1.01 1.52 1.008 1.5 1.01 1.479 1.008 1.457 1.01 1.436 1.008 1.415 1.01 1.393 1.008 1.372 1.01 1.349 1.008 1.327 1.01 1.305 1.008 1.282 1.01 1.26 1.008 1.236 1.01 1.214 1.009 1.19 1.009 1.168 1.009 1.145 1.009 1.12 1.009 1.097 1.009 1.073 1.009 1.05 1.009 1.025 1.009 1.001 1.009.977 1.009.953 1.009.929 1.009.903 1.009.88 1.009.854 1.009.83 1.009.805 1.009.78 1.009.754 1.009.73 1.009.705 1.009.68 1.009.654 1.009.629 1.009.603 1.009.578 1.009.553 1.009.527 1.009.502 1.009.476 1.009.45 1.009.426 1.009.4 1.009.373 1.009.348 1.009.322 1.009.297 1.009.271 1.009.246 1.009.22 1.009.194 1.009.169 1.009.143 1.009.118 1.009.092 1.009.066 1.009.041 1.009.016 1.009-.01 1.009-.034 1.009-.06 1.009-.086 1.009-.11 1.009-.137 1.009-.16 1.009-.186 1.009-.21 1.009-.236 1.009-.26 1.009-.286 1.01-.31 1.008-.333 1.01-.359 1.008-.382 1.01-.407 1.008-.431 1.01-.455 1.008-.48 1.01-.502 1.008-.527 1.01-.55 1.008-.573 1.01-.597 1.008-.62 1.01-.643 1.008-.666 1.01-.689 1.008-.711 1.01-.734 1.008-.756 1.01-.779 1.008-.8 1.01-.823 1.008-.844 1.01-.866 1.008-.887 1.01-.91 1.008-.929 1.01-.95 1.008-.972 1.01-.992 1.008-1.013 1.01-1.033 1.008-1.053 1.01-1.073 1.008-1.092 1.01-1.113 1.008-1.131 1.01-1.15 1.008-1.17 1.01-1.189 1.008-1.207 1.01-1.225 1.008-1.244 1.01-1.261 1.008-1.28 1.01-1.296 1.008-1.314 1.01-1.332 1.008-1.348 1.01-1.365 1.009-1.381 1.009-1.398 1.009-1.414 1.009-1.43 1.009-1.445 1.009-1.46 1.009-1.476 1.009-1.49 1.009-1.506 1.009-1.52 1.009-1.534 1.009-1.549 1.009-1.562 1.009-1.575 1.009-1.59 1.009-1.601 1.009-1.615 1.009-1.627 1.009-1.64 1.009-1.652 1.009-1.664 1.009-1.675 1.009-1.687 1.009-1.698 1.009-1.709 1.009-1.72 1.009-1.73 1.009-1.74 1.009-1.75 1.009-1.76 1.009-1.768 1.009-1.779 1.009-1.787 1.009-1.796 1.009-1.804 1.009-1.812 1.009-1.82 1.009-1.829 1.009-1.835 1.009-1.842 1.009-1.85 1.009-1.856 1.009-1.862 1.009-1.869 1.009-1.874 1.009-1.88 1.009-1.886 1.009-1.89 1.009-1.896 1.009-1.9 1.009-1.905 1.009-1.908 1.009-1.913 1.009-1.916L672 227.35l1.009-1.922 1.009-1.926 1.009-1.927 1.009-1.93 1.009-1.933 1.01-1.934 1.008-1.936 1.01-1.937 1.008-1.938 1.01-1.939 1.008-1.94 1.01-1.94 1.008-1.94 1.01-1.94 1.008-1.939 1.01-1.939 1.008-1.938 1.01-1.937 1.008-1.935 1.01-1.934 1.008-1.932 1.01-1.93 1.008-1.928 1.01-1.925 1.008-1.923 1.01-1.919 1.008-1.916 1.01-1.913 1.008-1.909 1.01-1.905 1.008-1.9 1.01-1.897 1.008-1.892 1.01-1.887 1.008-1.882 1.01-1.877 1.008-1.87 1.01-1.866 1.008-1.86 1.01-1.853 1.008-1.847 1.01-1.84 1.008-1.834 1.01-1.827 1.008-1.82 1.01-1.812 1.008-1.804 1.01-1.797 1.008-1.788 1.01-1.78 1.008-1.773 1.01-1.763 1.008-1.755 1.01-1.745 1.008-1.737 1.01-1.727 1.009-1.717 1.009-1.708 1.009-1.698 1.009-1.687 1.009-1.678 1.009-1.667 1.009-1.656 1.009-1.645 1.009-1.635 1.009-1.623 1.009-1.611 1.009-1.6 1.009-1.589 1.009-1.576 1.009-1.564 1.009-1.552 1.009-1.539 1.009-1.526 1.009-1.512 1.009-1.499 1.009-1.483 1.009-1.468 1.009-1.45 1.009-1.426 1.009-1.392 1.009-1.311 1.009-.954 1.009.444 1.009 1.289 1.009 1.444 1.009 1.496 1.009 1.525 1.009 1.547 1.009 1.567 1.009 1.584 1.009 1.6 1.009 1.616 1.009 1.631 1.009 1.647 1.009 1.661 1.009 1.676 1.009 1.69 1.009 1.705 1.009 1.719 1.009 1.733 1.009 1.746 1.009 1.76 1.009 1.774 1.009 1.788 1.009 1.8 1.009 1.814 1.009 1.826 1.009 1.84 1.009 1.852 1.009 1.864 1.009 1.877 1.009 1.89 1.009 1.9 1.009 1.914 1.009 1.925 1.01 1.937 1.008 1.949 1.01 1.96 1.008 1.97 1.01 1.983 1.008 1.993 1.01 2.004 1.008 2.015 1.01 2.025 1.008 2.035 1.01 2.046 1.008 2.055 1.01 2.066 1.008 2.075 1.01 2.085 1.008 2.094 1.01 2.104 1.008 2.112 1.01 2.122 1.008 2.13 1.01 2.139 1.008 2.147 1.01 2.156 1.008 2.163 1.01 2.172 1.008 2.18 1.01 2.186 1.008 2.195 1.01 2.201 1.008 2.21 1.01 2.215 1.008 2.223 1.01 2.229 1.008 2.235 1.01 2.242 1.008 2.248 1.01 2.254 1.008 2.26 1.01 2.265 1.008 2.27 1.01 2.277 1.008 2.28 1.01 2.287 1.008 2.29 1.01 2.296 1.008 2.3 1.01 2.304 1.008 2.308 1.01 2.312 1.008 2.315 1.01 2.32 1.009 2.322 1.009 2.326 1.009 2.329 1.009 2.332 1.009 2.334 1.009 2.337 1.009 2.34 1.009 2.341 1.009 2.344 1.009 2.346 1.009 2.347 1.009 2.349 1.009 2.35 1.009 2.352 1.009 2.352 1.009 2.353 1.009 2.355 1.009 2.354 1.009 2.356 1.009 2.355 1.009 2.355 1.009 2.356 1.009 2.355 1.009 2.355 1.009 2.354 1.009 2.354 1.009 2.352 1.009 2.352 1.009 2.35 1.009 2.35 1.009 2.347 1.009 2.347 1.009 2.344 1.009 2.342 1.009 2.34 1.009 2.339 1.009 2.336 1.009 2.333 1.009 2.33 1.009 2.328 1.009 2.325 1.009 2.322 1.009 2.319 1.009 2.315 1.009 2.312 1.009 2.308 1.009 2.304 1.009 2.3 1.009 2.297 1.009 2.292 1.009 2.288 1.009 2.284 1.009 2.279 1.009 2.274 1.009 2.27 1.009 2.264 1.009 2.26 1.009 2.254 1.009 2.249 1.009 2.243 1.01 2.238 1.008 2.233 1.01 2.226 1.008 2.221 1.01 2.215 1.008 2.209 1.01 2.202 1.008 2.196 1.01 2.19 1.008 2.183 1.01 2.177 1.008 2.17 1.01 2.163 1.008 2.156 1.01 2.15 1.008 2.141 1.01 2.135 1.008 2.127 1.01 2.12 1.008 2.113 1.01 2.105 1.008 2.097 1.01 2.09 1.008 2.081 1.01 2.074 1.008 2.065 1.01 2.058 1.008 2.05 1.01 2.04 1.008 2.034 1.01 2.024 1.008 2.016 1.01 2.008 1.008 1.998 1.01 1.99 1.008 1.982 1.01 1.973 1.008 1.963 1.01 1.955 1.008 1.946 1.01 1.937 1.008 1.927 1.01 1.919 1.008 1.91 1.01 1.9 1.008 1.89 1.01 1.881 1.008 1.872 1.01 1.862 1.008 1.853 1.01 1.844 1.009 1.833 1.009 1.824 1.009 1.815 1.009 1.804 1.009 1.795 1.009 1.785 1.009 1.775 1.009 1.766 1.009 1.755 1.009 1.745 1.009 1.736 1.009 1.726 1.009 1.715 1.009 1.705 1.009 1.696 1.009 1.685 1.009 1.675 1.009 1.665 1.009 1.655 1.009 1.645 1.009 1.635 1.009 1.624 1.009 1.614 1.009 1.604 1.009 1.594 1.009 1.583 1.009 1.573 1.009 1.563 1.009 1.553 1.009 1.542 1.009 1.532 1.009 1.522 1.009 1.511 1.009 1.501 1.009 1.491 1.009 1.48 1.009 1.471 1.009 1.46 1.009 1.45 1.009 1.44 1.009 1.429 1.009 1.419 1.009 1.409 1.009 1.398 1.009 1.388 1.009 1.379 1.009 1.367 1.009 1.358 1.009 1.348 1.009 1.337 1.009 1.327 1.009 1.317 1.009 1.307 1.009 1.297L1008 576V133.175l-1.009-.895-1.009-.898-1.009-.902-1.009-.904-1.009-.907-1.01-.911-1.008-.914-1.01-.916-1.008-.92-1.01-.921-1.008-.925-1.01-.927-1.008-.93-1.01-.932-1.008-.935-1.01-.937-1.008-.94-1.01-.94-1.008-.944-1.01-.945-1.008-.947-1.01-.95-1.008-.95-1.01-.952-1.008-.954-1.01-.955-1.008-.957-1.01-.958-1.008-.959-1.01-.96-1.008-.96-1.01-.962-1.008-.963-1.01-.963-1.008-.964-1.01-.964-1.008-.965-1.01-.965-1.008-.965-1.01-.965-1.008-.965-1.01-.965-1.008-.965-1.01-.964-1.008-.963-1.01-.963-1.008-.963-1.01-.961-1.008-.96-1.01-.96-1.008-.958-1.01-.957-1.008-.955-1.01-.954-1.008-.952-1.01-.95-1.009-.949-1.009-.946-1.009-.944-1.009-.942-1.009-.94-1.009-.937-1.009-.934-1.009-.931-1.009-.929-1.009-.925-1.009-.922-1.009-.92-1.009-.915-1.009-.912-1.009-.908-1.009-.904-1.009-.9-1.009-.896-1.009-.892-1.009-.888-1.009-.883-1.009-.878-1.009-.874-1.009-.868-1.009-.864-1.009-.858-1.009-.853-1.009-.847-1.009-.842-1.009-.836-1.009-.83-1.009-.824-1.009-.818-1.009-.812-1.009-.805-1.009-.798-1.009-.792-1.009-.785-1.009-.778-1.009-.77-1.009-.764-1.009-.756-1.009-.748-1.009-.74-1.009-.734-1.009-.724-1.009-.717-1.009-.708-1.009-.7-1.009-.692-1.009-.682-1.009-.674-1.009-.665-1.009-.656-1.009-.646-1.009-.637-1.009-.628-1.009-.618-1.009-.608-1.009-.598-1.01-.588-1.008-.578-1.01-.568-1.008-.557-1.01-.546-1.008-.536-1.01-.525-1.008-.514-1.01-.503-1.008-.491-1.01-.48-1.008-.47-1.01-.456-1.008-.445-1.01-.434-1.008-.421-1.01-.41-1.008-.397-1.01-.384-1.008-.373-1.01-.36-1.008-.346-1.01-.334-1.008-.321-1.01-.308-1.008-.295-1.01-.282-1.008-.268-1.01-.255-1.008-.24-1.01-.228-1.008-.213-1.01-.2-1.008-.186-1.01-.171-1.008-.157-1.01-.143-1.008-.128-1.01-.114-1.008-.1-1.01-.084-1.008-.07-1.01-.055-1.008-.04-1.01-.025-1.008-.01-1.01.006-1.008.02-1.01.037-1.008.051-1.01.067-1.009.083-1.009.098-1.009.114-1.009.13-1.009.146-1.009.161-1.009.178-1.009.194-1.009.21-1.009.225-1.009.242-1.009.259-1.009.275-1.009.29-1.009.308-1.009.324-1.009.34-1.009.357-1.009.374-1.009.39-1.009.406-1.009.424-1.009.44-1.009.456-1.009.474-1.009.49-1.009.507-1.009.523-1.009.54-1.009.558-1.009.574-1.009.59-1.009.608-1.009.625-1.009.641-1.009.658-1.009.675-1.009.692-1.009.708-1.009.725-1.009.742-1.009.76-1.009.775-1.009.792-1.009.808-1.009.826-1.009.842-1.009.858-1.009.875-1.009.892-1.009.908-1.009.924-1.009.941-1.009.957-1.009.973-1.009.99-1.009 1.005-1.009 1.022-1.009 1.038-1.009 1.053-1.01 1.07-1.008 1.085-1.01 1.1-1.008 1.117-1.01 1.132-1.008 1.148-1.01 1.163-1.008 1.178-1.01 1.193-1.008 1.208-1.01 1.222-1.008 1.238-1.01 1.251-1.008 1.266-1.01 1.28-1.008 1.292-1.01 1.304-1.008 1.315-1.01 1.322-1.008 1.322-1.01 1.3-1.008 1.174-1.01.36-1.008-1.011-1.01-1.338-1.008-1.39-1.01-1.394-1.008-1.389-1.01-1.378-1.008-1.364-1.01-1.35-1.008-1.336-1.01-1.32-1.008-1.304-1.01-1.289-1.008-1.272-1.01-1.255-1.008-1.24-1.01-1.222-1.008-1.206-1.01-1.189-1.008-1.172-1.01-1.156-1.008-1.138-1.01-1.121-1.008-1.104-1.01-1.087-1.008-1.07-1.01-1.053-1.008-1.035-1.01-1.018-1.009-1-1.009-.983-1.009-.966-1.009-.948-1.009-.93-1.009-.914-1.009-.895-1.009-.878-1.009-.86-1.009-.843-1.009-.825-1.009-.807-1.009-.79-1.009-.772-1.009-.754-1.009-.737-1.009-.718-1.009-.702-1.009-.683-1.009-.666-1.009-.648-1.009-.63-1.009-.614-1.009-.595-1.009-.578-1.009-.56-1.009-.542-1.009-.525-1.009-.508-1.009-.49-1.009-.473-1.009-.455-1.009-.437-1.009-.42-1.009-.404-1.009-.386-1.009-.369-1.009-.351-1.009-.334-1.009-.318-1.009-.3-1.009-.283-1.009-.267-1.009-.25-1.009-.232-1.009-.216-1.009-.2-1.009-.182-1.009-.167-1.009-.15-1.009-.133-1.009-.117-1.009-.101-1.009-.085-1.009-.069-1.009-.053-1.009-.037-1.009-.02-1.009-.006-1.009.01-1.01.025-1.008.041-1.01.057-1.008.071-1.01.087-1.008.101-1.01.117-1.008.131-1.01.146-1.008.16-1.01.176-1.008.19-1.01.203-1.008.218-1.01.231-1.008.246-1.01.26-1.008.272-1.01.287-1.008.3-1.01.312-1.008.326-1.01.34-1.008.351-1.01.365-1.008.377-1.01.39-1.008.4-1.01.415-1.008.425-1.01.438-1.008.45-1.01.46-1.008.472-1.01.484-1.008.494-1.01.506-1.008.516-1.01.526-1.008.538-1.01.547-1.008.558-1.01.567-1.008.577-1.01.587-1.008.596-1.01.606-1.008.615-1.01.623-1.008.633-1.01.64-1.009.65-1.009.658-1.009.665-1.009.674-1.009.681-1.009.69-1.009.695-1.009.704-1.009.71-1.009.717-1.009.724-1.009.73-1.009.736-1.009.743-1.009.748-1.009.754-1.009.76-1.009.764-1.009.77-1.009.774-1.009.78-1.009.784-1.009.788-1.009.793-1.009.796-1.009.8-1.009.804-1.009.807-1.009.81-1.009.813-1.009.816-1.009.818-1.009.821-1.009.823-1.009.825-1.009.827-1.009.828-1.009.83-1.009.83-1.009.832-1.009.832-1.009.833-1.009.834-1.009.833-1.009.834-1.009.833-1.009.832-1.009.833-1.009.83-1.009.83-1.009.83-1.009.827-1.009.826-1.009.823-1.009.822-1.009.82-1.009.817-1.009.814-1.009.811-1.009.809-1.01.805-1.008.801-1.01.798-1.008.794-1.01.79-1.008.786-1.01.78-1.008.777-1.01.772-1.008.767-1.01.76-1.008.757-1.01.75-1.008.744-1.01.739-1.008.732-1.01.726-1.008.719-1.01.712-1.008.706-1.01.698-1.008.691-1.01.684-1.008.675-1.01.668-1.008.66-1.01.652-1.008.643-1.01.635-1.008.625-1.01.617-1.008.608-1.01.599-1.008.589-1.01.58-1.008.57-1.01.559-1.008.55-1.01.54-1.008.528-1.01.519-1.008.507-1.01.497-1.008.486-1.01.475-1.008.463-1.01.452-1.008.44-1.01.43-1.008.416-1.01.405-1.009.392-1.009.38-1.009.368-1.009.356-1.009.343-1.009.33-1.009.317-1.009.304-1.009.29-1.009.279-1.009.264-1.009.25-1.009.238-1.009.224-1.009.21-1.009.197-1.009.182-1.009.168-1.009.155-1.009.14-1.009.126-1.009.111-1.009.098-1.009.082-1.009.069-1.009.053-1.009.04-1.009.024-1.009.01-1.009-.006-1.009-.02-1.009-.034-1.009-.05-1.009-.065-1.009-.08-1.009-.094-1.009-.11-1.009-.124-1.009-.14-1.009-.154-1.009-.17-1.009-.185-1.009-.2-1.009-.214-1.009-.23-1.009-.245-1.009-.26-1.009-.275-1.009-.29-1.009-.305-1.009-.32-1.009-.334-1.009-.35-1.009-.363-1.009-.38-1.009-.393-1.009-.408-1.009-.422-1.009-.437-1.009-.452-1.01-.465-1.008-.48-1.01-.494-1.008-.508-1.01-.523-1.008-.535-1.01-.55-1.008-.563-1.01-.577-1.008-.59-1.01-.604-1.008-.617-1.01-.63-1.008-.642-1.01-.656-1.008-.668-1.01-.68-1.008-.693-1.01-.705-1.008-.717-1.01-.728-1.008-.74-1.01-.753-1.008-.763-1.01-.774-1.008-.785-1.01-.796-1.008-.806-1.01-.817-1.008-.827-1.01-.837-1.008-.846-1.01-.856-1.008-.866-1.01-.874-1.008-.883-1.01-.892-1.008-.9-1.01-.908-1.008-.916-1.01-.923-1.008-.931-1.01-.938-1.008-.945-1.01-.951-1.008-.958-1.01-.963-1.008-.97-1.01-.974-1.008-.98-1.01-.985-1.009-.99-1.009-.993-1.009-.998-1.009-1-1.009-1.006-1.009-1.007-1.009-1.011-1.009-1.013-1.009-1.015-1.009-1.017-1.009-1.019-1.009-1.02-1.009-1.02-1.009-1.021-1.009-1.021-1.009-1.022-1.009-1.02-1.009-1.02-1.009-1.02-1.009-1.016-1.009-1.016-1.009-1.013-1.009-1.011-1.009-1.009-1.009-1.004-1.009-1.002-1.009-.998-1.009-.993-1.009-.99-1.009-.983-1.009-.98-1.009-.973-1.009-.968-1.009-.961-1.009-.956-1.009-.948-1.009-.942-1.009-.934-1.009-.927-1.009-.92-1.009-.912-1.009-.904-1.009-.896-1.009-.889-1.009-.88-1.009-.875-1.009-.867-1.009-.862-1.009-.859-1.009-.856-1.009-.856-1.009-.86-1.009-.868-1.009-.877-1.009-.888-1.009-.898-1.009-.903-1.009-.904-1.009-.898-1.009-.888-1.01-.873-1.008-.855-1.01-.834-1.008-.812-1.01-.788-1.008-.762-1.01-.736-1.008-.71-1.01-.682-1.008-.653-1.01-.626-1.008-.596-1.01-.567-1.008-.538-1.01-.508-1.008-.479-1.01-.448-1.008-.418-1.01-.387-1.008-.357-1.01-.326-1.008-.295-1.01-.264-1.008-.233-1.01-.202-1.008-.17-1.01-.139-1.008-.107-1.01-.076-1.008-.044-1.01-.012-1.008.02-1.01.051-1.008.083-1.01.116-1.008.147-1.01.179-1.008.211-1.01.243-1.008.276-1.01.307-1.008.34-1.01.37-1.008.404-1.01.436-1.008.467-1.01.5-1.008.531-1.01.563-1.008.595-1.01.627-1.009.658-1.009.69-1.009.722-1.009.753-1.009.785-1.009.816-1.009.847-1.009.878-1.009.91-1.009.94-1.009.97-1.009 1.002-1.009 1.032-1.009 1.063-1.009 1.093-1.009 1.123-1.009 1.153-1.009 1.182-1.009 1.213-1.009 1.241-1.009 1.271-1.009 1.3-1.009 1.33-1.009 1.357-1.009 1.386-1.009 1.415-1.009 1.442-1.009 1.47-1.009 1.499-1.009 1.525-1.009 1.553-1.009 1.58-1.009 1.606-1.009 1.632-1.009 1.66-1.009 1.684-1.009 1.71-1.009 1.736-1.009 1.762-1.009 1.786-1.009 1.81-1.009 1.836-1.009 1.86-1.009 1.884-1.009 1.907-1.009 1.931-1.009 1.955-1.009 1.977-1.009 2.001-1.009 2.023-1.009 2.046-1.009 2.069-1.009 2.09-1.009 2.112L224 86.787l-1.009 2.156-1.009 2.177-1.009 2.198-1.009 2.219-1.009 2.239-1.01 2.26-1.008 2.28-1.01 2.299-1.008 2.319-1.01 2.338-1.008 2.358-1.01 2.376-1.008 2.394-1.01 2.412-1.008 2.43-1.01 2.448-1.008 2.464-1.01 2.481-1.008 2.498-1.01 2.513-1.008 2.529-1.01 2.544-1.008 2.559-1.01 2.573-1.008 2.587-1.01 2.6-1.008 2.614-1.01 2.626-1.008 2.64-1.01 2.65-1.008 2.662-1.01 2.673-1.008 2.683-1.01 2.694-1.008 2.704-1.01 2.712-1.008 2.721-1.01 2.73-1.008 2.738-1.01 2.744-1.008 2.752-1.01 2.759-1.008 2.764-1.01 2.77-1.008 2.775-1.01 2.779-1.008 2.784-1.01 2.787-1.008 2.79-1.01 2.794-1.008 2.795-1.01 2.798-1.008 2.799-1.01 2.8-1.008 2.8-1.01 2.8-1.009 2.8-1.009 2.798-1.009 2.798-1.009 2.795-1.009 2.793-1.009 2.791-1.009 2.788-1.009 2.783-1.009 2.78-1.009 2.776-1.009 2.77-1.009 2.765-1.009 2.76-1.009 2.753-1.009 2.746-1.009 2.74-1.009 2.732-1.009 2.724-1.009 2.716-1.009 2.707-1.009 2.698-1.009 2.689-1.009 2.678-1.009 2.668-1.009 2.658-1.009 2.646-1.009 2.635-1.009 2.622-1.009 2.61-1.009 2.598-1.009 2.585-1.009 2.57-1.009 2.557-1.009 2.543-1.009 2.528-1.009 2.513-1.009 2.497-1.009 2.481-1.009 2.465-1.009 2.449-1.009 2.431-1.009 2.415-1.009 2.396-1.009 2.378-1.009 2.36-1.009 2.341-1.009 2.322-1.009 2.303-1.009 2.282-1.009 2.263-1.009 2.242-1.009 2.221-1.009 2.2-1.009 2.178L112 372.67l-1.009 2.135-1.009 2.112-1.009 2.09-1.009 2.066-1.009 2.044-1.01 2.02-1.008 1.996-1.01 1.972-1.008 1.948-1.01 1.924-1.008 1.899-1.01 1.874-1.008 1.85-1.01 1.823-1.008 1.799-1.01 1.773-1.008 1.748-1.01 1.721-1.008 1.696-1.01 1.67-1.008 1.642-1.01 1.618-1.008 1.59-1.01 1.564-1.008 1.538-1.01 1.51-1.008 1.485-1.01 1.458-1.008 1.43-1.01 1.404-1.008 1.377-1.01 1.35-1.008 1.324-1.01 1.296-1.008 1.27-1.01 1.242-1.008 1.216-1.01 1.188-1.008 1.162-1.01 1.135-1.008 1.108-1.01 1.082-1.008 1.054-1.01 1.028-1.008 1.001-1.01.975-1.008.948-1.01.921-1.008.895-1.01.868-1.008.842-1.01.815-1.008.788-1.01.763-1.008.735-1.01.709-1.009.682-1.009.655-1.009.629-1.009.6-1.009.574-1.009.546-1.009.517-1.009.489-1.009.459-1.009.429-1.009.399-1.009.367-1.009.335-1.009.303-1.009.27-1.009.236-1.009.202-1.009.168-1.009.135-1.009.1-1.009.068-1.009.034-1.009.002-1.009-.031-1.009-.063-1.009-.094-1.009-.126-1.009-.156-1.009-.187-1.009-.216-1.009-.247-1.009-.275-1.009-.305-1.009-.334-1.009-.362-1.009-.391-1.009-.419-1.009-.446-1.009-.474-1.009-.502-1.009-.528-1.009-.555-1.009-.582-1.009-.608-1.009-.635-1.009-.66-1.009-.686-1.009-.71-1.009-.737-1.009-.761-1.009-.786-1.009-.81-1.009-.835-1.009-.858z" clip-path="url(#p9a2cece13c)" style="fill:#add8e6;fill-opacity:.25;stroke:#add8e6;stroke-opacity:.25" id="FillBetweenPolyCollection_1"/><path d="m0 440.618 3.027 3.324 3.027 3.047 3.027 2.766 3.027 2.482 3.027 2.194 3.027 1.904 3.027 1.611 3.027 1.316 3.027 1.02 3.027.721 3.027.423 3.027.123 3.027-.177 3.027-.476 3.027-.775 3.027-1.073 3.027-1.369 3.027-1.663 3.028-1.957 3.027-2.246 3.027-2.533 3.027-2.817 3.027-3.097 3.027-3.373 3.027-3.644 4.036-5.274 4.036-5.736 4.036-6.185 4.036-6.62 4.036-7.04 4.036-7.443 5.045-9.844 5.045-10.413 5.045-10.942 5.045-11.433 6.054-14.31 6.054-14.881 7.063-17.984 8.072-21.215 10.09-27.225 34.307-93.312 8.072-20.97 7.063-17.709 6.054-14.605 6.054-13.995L224 88.07l5.045-10.63 5.045-10.075 5.045-9.487 4.036-7.142 4.036-6.726 4.036-6.295 4.036-5.85 4.036-5.39 4.036-4.92 3.027-3.373 3.027-3.097 3.027-2.816 3.027-2.534 3.027-2.246 3.028-1.956 3.027-1.664 3.027-1.369 3.027-1.072 3.027-.775 3.027-.476L299.676 0l3.027.123 3.027.422 3.027.722 3.027 1.02 3.027 1.315 3.027 1.611 3.027 1.904 3.027 2.195 3.027 2.482 3.027 2.766 3.027 3.047L336 20.93l3.027 3.596 4.036 5.21 4.036 5.676 4.036 6.125 4.036 6.563 4.036 6.984 4.036 7.39 5.045 9.78 5.045 10.354 5.045 10.887 5.045 11.382 6.054 14.254 6.055 14.834 7.063 17.936 8.072 21.173 10.09 27.192 35.315 96.02 8.072 20.929 7.063 17.665 6.054 14.561 6.054 13.945 5.045 11.097 5.045 10.58 5.045 10.022 4.036 7.594 4.037 7.196 4.036 6.783 4.036 6.355 4.036 5.91 4.036 5.453 4.036 4.983 3.027 3.422 3.027 3.147 3.027 2.867 3.027 2.584 3.027 2.298 3.027 2.008 3.027 1.717 3.027 1.422 3.027 1.126 3.027.828 3.027.53 3.027.23 3.027-.07 3.027-.368 3.027-.668 3.027-.966 3.027-1.263 3.027-1.558 3.027-1.852 3.027-2.143 3.027-2.43 3.027-2.716 3.027-2.997 3.027-3.274 3.027-3.548 3.027-3.816 4.036-5.498 4.036-5.954 4.037-6.397 4.036-6.824 4.036-7.235 4.036-7.631 5.045-10.067 5.045-10.621 5.045-11.136 6.054-13.987 6.054-14.598 7.063-17.702 7.063-18.306 9.081-24.215 12.108-33.017 21.19-57.859 9.08-24.076 7.064-18.16 7.063-17.521 6.054-14.418 6.054-13.783 5.045-10.95 5.045-10.42 5.045-9.854 4.036-7.45 4.036-7.047 4.036-6.628 4.036-6.194L784 30.577l4.036-5.282 3.027-3.652 3.027-3.38 3.027-3.103 3.027-2.824 3.027-2.54 3.027-2.254 3.027-1.963 3.027-1.671 3.027-1.377 3.027-1.08 3.027-.782 3.027-.484L827.387 0l3.027.115 3.027.415 3.027.714 3.027 1.012 3.028 1.309 3.027 1.603 3.027 1.897 3.027 2.187 3.027 2.475 3.027 2.76 3.027 3.04 3.027 3.316 3.027 3.59 4.036 5.201 4.036 5.667 4.036 6.117 4.036 6.554 4.036 6.977 4.036 7.382L896 72.104l5.045 10.345 5.045 10.88 5.045 11.374 6.054 14.247 6.054 14.827 7.063 17.93 8.072 21.166 10.09 27.187 36.325 98.68 8.072 20.848 7.063 17.575 6.054 14.47 2.018 4.688h0" clip-path="url(#p9a2cece13c)" style="fill:none;stroke:#3b7cd0;stroke-width:12;stroke-linecap:square" id="line2d_1"/><path d="m0 454.285 4.036 2.164 4.036 1.89 4.036 1.594 3.027.993 3.027.81 3.027.62 3.027.425 3.027.221 3.027.013 3.027-.202 3.027-.422 3.027-.646 3.027-.877 3.027-1.11 3.027-1.347 3.027-1.589 3.027-1.832 3.028-2.078 3.027-2.327 3.027-2.576 3.027-2.826 3.027-3.077 3.027-3.329 4.036-4.826 4.036-5.269 4.036-5.706 4.036-6.137 4.036-6.56 4.036-6.974 4.036-7.377 4.036-7.766 5.045-10.235 5.045-10.79 5.045-11.31 6.054-14.207 6.054-14.83 7.063-17.984 7.063-18.595 9.081-24.576 14.127-39.03 15.135-41.665 9.08-24.308 7.064-18.296 6.054-15.138 6.054-14.545 5.045-11.611 5.045-11.1 5.045-10.55 5.045-9.96 4.036-7.52 4.036-7.107 4.036-6.677 4.036-6.235 4.036-5.782 4.036-5.319 3.027-3.68 3.027-3.412 3.027-3.142 3.027-2.87 3.027-2.595 3.027-2.322 3.027-2.048 3.028-1.773 3.027-1.499 3.027-1.227 3.027-.956 3.027-.687 3.027-.422 3.027-.158 3.027.1 3.027.357 3.027.608 3.027.854 3.027 1.095 3.027 1.33 3.027 1.562 3.027 1.784 3.027 2.002 3.027 2.212 4.036 3.264 4.036 3.607 4.036 3.933 4.036 4.24 4.036 4.525 5.045 6.03 5.045 6.405 5.045 6.74 6.054 8.47 7.063 10.316 8.072 12.223 11.1 17.256 19.17 29.863 8.073 12.181 7.063 10.302 6.054 8.496 6.054 8.134 6.054 7.727 5.045 6.097 5.045 5.763 5.045 5.408 5.045 5.036 4.036 3.75 4.036 3.496 4.036 3.233 4.036 2.967 4.036 2.695 4.036 2.421 4.036 2.143 4.036 1.864 4.037 1.583 4.036 1.302 4.036 1.022 4.036.743 4.036.466 4.036.192 4.036-.079 4.036-.345 4.036-.607 4.036-.863 4.036-1.114 4.036-1.357 4.036-1.593 4.036-1.822 4.036-2.041 4.036-2.253 5.045-3.1 5.045-3.396 5.045-3.674 5.045-3.93 6.054-5.023 6.054-5.322 7.063-6.535 8.072-7.818 9.082-9.122 14.126-14.553 16.144-16.563 9.08-9.004 8.073-7.677 7.063-6.391 6.054-5.192 6.054-4.89 5.045-3.821 5.045-3.573 5.045-3.307 5.045-3.027 5.045-2.731 4.036-1.964 4.036-1.76 4.036-1.552 4.037-1.337 4.036-1.119 4.036-.896 4.036-.67 4.036-.44 4.036-.209 4.036.024 4.036.26 4.036.494 4.036.73 4.036.965 4.036 1.2 4.036 1.433L784 85.898l4.036 1.893 4.036 2.119 4.036 2.34 4.036 2.56 5.045 3.501 5.045 3.826 5.045 4.142 5.045 4.445 5.045 4.738 5.045 5.017 6.054 6.369 6.055 6.727 6.054 7.058 7.063 8.618 7.063 8.988 8.072 10.669 9.08 12.424 10.09 14.213 13.118 18.91 38.342 55.603 11.1 15.561 10.09 13.74 9.08 11.97 8.073 10.284 8.072 9.92 8.072 9.53 7.063 8.004 5.045 5.52h0" clip-path="url(#p9a2cece13c)" style="fill:none;stroke:#f04f43;stroke-width:12;stroke-linecap:square" id="line2d_2"/><g id="PathCollection_1"><defs><path id="m0742212eaa" d="M0 8.944a8.945 8.945 0 1 0 0-17.89 8.945 8.945 0 0 0 0 17.89z" style="stroke:red"/></defs><g clip-path="url(#p9a2cece13c)"><use xlink:href="#m0742212eaa" x="42" y="460.972" style="fill:red;stroke:red"/><use xlink:href="#m0742212eaa" x="105" y="388.08" style="fill:red;stroke:red"/><use xlink:href="#m0742212eaa" x="168" y="230.774" style="fill:red;stroke:red"/><use xlink:href="#m0742212eaa" x="231" y="73.469" style="fill:red;stroke:red"/><use xlink:href="#m0742212eaa" x="336" y="20.931" style="fill:red;stroke:red"/><use xlink:href="#m0742212eaa" x="756" y="79.158" style="fill:red;stroke:red"/></g></g></g></g><defs><clipPath id="p9a2cece13c"><path d="M0 0h1008v576H0z"/></clipPath></defs></svg>