<?xml version="1.0" encoding="utf-8"?>
<!-- Generator: Adobe Illustrator 24.1.1, SVG Export Plug-In . SVG Version: 6.00 Build 0)  -->
<svg version="1.1" id="Capa_1" xmlns="http://www.w3.org/2000/svg" xmlns:xlink="http://www.w3.org/1999/xlink" x="0px" y="0px"
	 viewBox="0 0 412.7 296.1" style="enable-background:new 0 0 412.7 296.1;" xml:space="preserve">
<g>
	<g>
		<path d="M404.7,24.6C404.7,24.6,404.7,24.6,404.7,24.6L404.7,24.6h-27.2v-9.3c0.1-3.7-2.2-7-5.8-8C352.9,2.4,333.5,0,314.1,0
			c-32,0-75.6,7.2-107.8,40C174.2,6.9,130.3,0,98.4,0C78.9,0,59.5,2.4,40.7,7.4c-3.5,1-5.9,4.3-5.8,8v9.2H8c-4.4,0-8,3.6-8,8v255.5
			c0,4.4,3.6,8,8,8c1.4,0,2.7-0.4,3.9-1c0.8-0.4,80.8-44.2,192.5-16h1.2h0.7c0.6,0.1,1.3,0.1,1.9,0c112-28.4,192,15.3,192.5,16
			c2.5,1.4,5.5,1.4,8,0c2.5-1.4,4-4,4-6.9V32.6C412.7,28.2,409.1,24.6,404.7,24.6z M16,275.4V40.6h19.1v200.6c0,4.4,3.5,8,7.9,8.1
			c0.4,0,0.9,0,1.3-0.1c16.5-2.5,33.3-3.9,50-4c23.2-0.4,46.3,3.1,68.3,10.3C112.9,249.6,62.4,256.4,16,275.4z M94.3,229.4
			c-14.6,0-29.1,1-43.5,2.8V21.7c15.6-3.5,31.5-5.2,47.4-5.3c29.9,0,71.2,6.9,99.8,39.2l0.2,199.3C181.7,244,149.2,229.4,94.3,229.4
			z M214.3,55.6c28.6-32,69.9-39.2,99.8-39.2c16,0,31.9,1.8,47.4,5.3v210.5c-14.4-1.8-28.8-2.8-43.3-2.9c-54.6,0-87.1,14.6-104,25.5
			V55.6z M396.6,275.4c-46.5-19-97.1-25.8-147-19.8c22.1-7.3,45.3-10.7,68.6-10.3c16.8,0.1,33.7,1.4,50.3,3.9
			c4.4,0.7,8.4-2.3,9.1-6.7c0.1-0.4,0.1-0.9,0.1-1.3V40.6H397L396.6,275.4z"/>
	</g>
</g>
</svg>
