<?xml version="1.0" encoding="utf-8"?>
<!-- Generator: Adobe Illustrator 24.1.1, SVG Export Plug-In . SVG Version: 6.00 Build 0)  -->
<svg version="1.1" id="Capa_1" xmlns="http://www.w3.org/2000/svg" xmlns:xlink="http://www.w3.org/1999/xlink" x="0px" y="0px"
	 viewBox="0 0 512 408.5" style="enable-background:new 0 0 512 408.5;" xml:space="preserve">
<g>
	<g>
		<path d="M506.8,191.8L388.4,66.4c-7.3-7.7-19.4-8.1-27.1-0.8c-7.7,7.3-8.1,19.4-0.8,27.1l106,112.3l-106,112.3
			c-7.3,7.7-6.9,19.9,0.8,27.1c3.7,3.5,8.5,5.2,13.2,5.2c5.1,0,10.2-2,14-6l118.4-125.4C513.7,210.8,513.7,199.2,506.8,191.8z"/>
	</g>
</g>
<g>
	<g>
		<path d="M151.6,317.3L45.6,205l106-112.3c7.3-7.7,6.9-19.9-0.8-27.1c-7.7-7.3-19.9-6.9-27.1,0.8L5.2,191.8c-7,7.4-7,19,0,26.4
			l118.4,125.4c3.8,4,8.9,6,14,6c4.7,0,9.5-1.7,13.2-5.2C158.5,337.1,158.8,325,151.6,317.3z"/>
	</g>
</g>
<g>
	<g>
		<path d="M287.1,1.7c-10.5-1.6-20.3,5.6-21.9,16.1l-56.3,368.6c-1.6,10.5,5.6,20.3,16.1,21.9c1,0.1,2,0.2,2.9,0.2
			c9.3,0,17.5-6.8,19-16.3l56.3-368.6C304.7,13.1,297.5,3.3,287.1,1.7z"/>
	</g>
</g>
</svg>
