<?xml version="1.0" encoding="utf-8" standalone="no"?>
<!DOCTYPE svg PUBLIC "-//W3C//DTD SVG 1.1//EN"
  "http://www.w3.org/Graphics/SVG/1.1/DTD/svg11.dtd">
<svg xmlns:xlink="http://www.w3.org/1999/xlink" width="405pt" height="286.2pt" viewBox="0 0 405 286.2" xmlns="http://www.w3.org/2000/svg" version="1.1">
 <metadata>
  <rdf:RDF xmlns:dc="http://purl.org/dc/elements/1.1/" xmlns:cc="http://creativecommons.org/ns#" xmlns:rdf="http://www.w3.org/1999/02/22-rdf-syntax-ns#">
   <cc:Work>
    <dc:type rdf:resource="http://purl.org/dc/dcmitype/StillImage"/>
    <dc:date>2022-06-03T11:30:06.852512</dc:date>
    <dc:format>image/svg+xml</dc:format>
    <dc:creator>
     <cc:Agent>
      <dc:title>Matplotlib v3.5.1, https://matplotlib.org/</dc:title>
     </cc:Agent>
    </dc:creator>
   </cc:Work>
  </rdf:RDF>
 </metadata>
 <defs>
  <style type="text/css">*{stroke-linejoin: round; stroke-linecap: butt}</style>
 </defs>
 <g id="figure_1">
  <g id="patch_1">
   <path d="M 0 286.2
L 405 286.2
L 405 0
L 0 0
L 0 286.2
z
" style="fill: none"/>
  </g>
  <g id="axes_1">
   <g id="patch_2">
    <path d="M 7.2 279
L 397.8 279
L 397.8 7.2
L 7.2 7.2
L 7.2 279
z
" style="fill: none"/>
   </g>
   <g id="line2d_1">
    <path d="M 24.954545 19.554545
L 28.541322 34.059608
L 32.128099 47.771905
L 35.714876 60.698769
L 39.301653 72.849433
L 42.88843 84.234993
L 46.475207 94.868362
L 50.061983 104.76422
L 53.64876 113.938961
L 57.235537 122.410621
L 60.822314 130.198815
L 64.409091 137.324654
L 67.995868 143.810666
L 71.582645 149.680707
L 75.169421 154.959865
L 78.756198 159.674365
L 82.342975 163.851465
L 85.929752 167.519347
L 89.516529 170.707011
L 93.103306 173.444156
L 96.690083 175.761069
L 100.27686 177.6885
L 103.863636 179.257548
L 107.450413 180.499534
L 111.03719 181.445882
L 114.623967 182.127992
L 118.210744 182.57712
L 121.797521 182.824253
L 125.384298 182.899992
L 128.971074 182.834425
L 132.557851 182.657015
L 136.144628 182.396482
L 139.731405 182.08069
L 143.318182 181.736539
L 146.904959 181.38986
L 150.491736 181.065311
L 154.078512 180.786284
L 157.665289 180.574809
L 161.252066 180.451471
L 164.838843 180.435329
L 168.42562 180.543841
L 172.012397 180.792792
L 175.599174 181.196239
L 179.18595 181.76645
L 182.772727 182.513858
L 186.359504 183.447021
L 189.946281 184.572586
L 193.533058 185.895266
L 197.119835 187.417819
L 200.706612 189.14104
L 204.293388 191.063753
L 207.880165 193.182821
L 211.466942 195.493155
L 215.053719 197.987735
L 218.640496 200.657639
L 222.227273 203.492073
L 225.81405 206.478421
L 229.400826 209.602286
L 232.987603 212.847554
L 236.57438 216.196452
L 240.161157 219.62962
L 243.747934 223.126187
L 247.334711 226.663851
L 250.921488 230.218968
L 254.508264 233.766646
L 258.095041 237.280839
L 261.681818 240.734452
L 265.268595 244.099447
L 268.855372 247.346951
L 272.442149 250.44737
L 276.028926 253.370508
L 279.615702 256.085681
L 283.202479 258.561839
L 286.789256 260.76769
L 290.376033 262.671818
L 293.96281 264.24281
L 297.549587 265.449379
L 301.136364 266.260484
L 304.72314 266.645455
L 308.309917 266.574109
L 311.896694 266.016873
L 315.483471 264.944898
L 319.070248 263.330171
L 322.657025 261.145627
L 326.243802 258.365253
L 329.830579 254.964191
L 333.417355 250.918835
L 337.004132 246.206925
L 340.590909 240.807633
L 344.177686 234.701645
L 347.764463 227.871235
L 351.35124 220.300339
L 354.938017 211.974612
L 358.524793 202.881489
L 362.11157 193.010234
L 365.698347 182.351977
L 369.285124 170.899756
L 372.871901 158.648539
L 376.458678 145.595247
L 380.045455 131.738761
" clip-path="url(#pbe3ab2a268)" style="fill: none; stroke: #000000; stroke-width: 8; stroke-linecap: square"/>
   </g>
   <g id="line2d_2">
    <path d="M 202.5 268.680053
L 202.5 15.354
" clip-path="url(#pbe3ab2a268)" style="fill: none; stroke-dasharray: 5.55,2.4; stroke-dashoffset: 0; stroke: #000000; stroke-width: 1.5"/>
   </g>
   <g id="line2d_3">
    <path d="M 116.590909 133.780785
L 119.980519 135.59793
L 123.37013 137.415075
L 126.75974 139.23222
L 130.149351 141.049365
L 133.538961 142.86651
L 136.928571 144.683655
L 140.318182 146.5008
L 143.707792 148.317945
L 147.097403 150.13509
L 150.487013 151.952235
L 153.876623 153.769379
L 157.266234 155.586524
L 160.655844 157.403669
L 164.045455 159.220814
L 167.435065 161.037959
L 170.824675 162.855104
L 174.214286 164.672249
L 177.603896 166.489394
L 180.993506 168.306539
L 184.383117 170.123684
L 187.772727 171.940829
L 191.162338 173.757973
L 194.551948 175.575118
L 197.941558 177.392263
L 201.331169 179.209408
L 204.720779 181.026553
L 208.11039 182.843698
L 211.5 184.660843
L 214.88961 186.477988
L 218.279221 188.295133
L 221.668831 190.112278
L 225.058442 191.929423
L 228.448052 193.746567
L 231.837662 195.563712
L 235.227273 197.380857
L 238.616883 199.198002
L 242.006494 201.015147
L 245.396104 202.832292
L 248.785714 204.649437
L 252.175325 206.466582
L 255.564935 208.283727
L 258.954545 210.100872
L 262.344156 211.918017
L 265.733766 213.735161
L 269.123377 215.552306
L 272.512987 217.369451
L 275.902597 219.186596
L 279.292208 221.003741
L 282.681818 222.820886
" clip-path="url(#pbe3ab2a268)" style="fill: none; stroke: #a00404; stroke-width: 8; stroke-linecap: square"/>
   </g>
  </g>
 </g>
 <defs>
  <clipPath id="pbe3ab2a268">
   <rect x="7.2" y="7.2" width="390.6" height="271.8"/>
  </clipPath>
 </defs>
</svg>
