<?xml version="1.0" encoding="utf-8"?>
<!-- Generator: Adobe Illustrator 27.7.0, SVG Export Plug-In . SVG Version: 6.00 Build 0)  -->
<svg version="1.1" id="Layer_1" xmlns="http://www.w3.org/2000/svg" xmlns:xlink="http://www.w3.org/1999/xlink" x="0px" y="0px"
	 viewBox="0 0 1075 630" style="enable-background:new 0 0 1075 630;" xml:space="preserve">
<style type="text/css">
	.st0{fill:#303D3C;}
	.st1{fill:#EE2152;}
	.st2{fill:#EE2C4F;}
	.st3{fill:#EF384C;}
	.st4{fill:#EF4347;}
	.st5{fill:#F04F43;}
	.st6{fill:#F15A41;}
	.st7{fill:#F2653D;}
	.st8{fill:#F3723B;}
	.st9{fill:#F47C36;}
	.st10{fill:#F68933;}
</style>
<g>
	<path class="st0" d="M69.76,434.45c-11.26,0-21.21,2.65-29.85,7.95c-8.65,5.3-15.38,12.81-20.19,22.51
		c-4.81,9.71-7.22,20.84-7.22,33.4c0,19.74,5.38,35.24,16.15,46.49s25.45,16.88,44.05,16.88c8.81,0,17.37-1.51,25.69-4.53
		c8.32-3.02,15.17-7.05,20.55-12.11l-5.87-11.75c-12.24,10.12-25.69,15.17-40.38,15.17c-14.52,0-25.57-4.36-33.16-13.09
		c-7.59-8.72-11.38-21.33-11.38-37.81v-0.73h92.99v-3.18c0-18.6-4.53-33.12-13.58-43.56C98.51,439.67,85.91,434.45,69.76,434.45z
		 M29.14,485.34c1.79-12.24,6.2-21.74,13.21-28.51c7.01-6.77,16.15-10.16,27.41-10.16c11.09,0,19.82,3.3,26.18,9.91
		c6.36,6.61,10.03,16.19,11.01,28.75H29.14z"/>
	<path class="st0" d="M207.04,494.89l-21.04-5.14c-7.02-1.63-12.2-4.16-15.54-7.59c-3.35-3.43-5.02-7.91-5.02-13.46
		c0-6.69,2.61-11.91,7.83-15.66c5.22-3.75,12.56-5.63,22.02-5.63c13.37,0,25.69,4.89,36.95,14.68l5.63-11.5
		c-4.89-5.22-11.05-9.21-18.47-11.99c-7.43-2.77-15.46-4.16-24.1-4.16c-13.7,0-24.68,3.22-32.91,9.67
		c-8.24,6.45-12.36,15.05-12.36,25.82c0,7.83,2.81,14.68,8.44,20.55c5.63,5.87,13.34,9.95,23.12,12.24l20.8,4.65
		c7.99,1.96,13.74,4.53,17.25,7.71c3.51,3.18,5.26,7.55,5.26,13.09c0,6.69-2.65,11.79-7.95,15.29c-5.3,3.51-13.01,5.26-23.12,5.26
		c-8.65,0-16.27-1.14-22.88-3.43c-6.61-2.28-13.18-6.12-19.7-11.5l-5.38,11.5c11.58,10.93,27.32,16.4,47.23,16.4
		c14.35,0,25.77-3.14,34.26-9.42c8.48-6.28,12.72-14.56,12.72-24.84C240.07,510.63,229.06,499.78,207.04,494.89z"/>
	<path class="st0" d="M293.66,399.21l-14.93,5.63v32.55h-24.23v11.99h24.23v75.86c0,12.07,3.06,21.13,9.18,27.16
		c6.12,6.04,14.56,9.05,25.33,9.05c5.38,0,10.68-0.65,15.91-1.96v-13.46c-4.24,1.47-8.65,2.2-13.21,2.2
		c-7.34,0-12.89-1.87-16.64-5.63c-3.75-3.75-5.63-10.52-5.63-20.31v-72.92h36.22v-11.99h-36.22V399.21z"/>
	<rect x="355.32" y="437.38" class="st0" width="14.68" height="122.6"/>
	<rect x="353.12" y="386.73" class="st0" width="19.82" height="19.09"/>
	<path class="st0" d="M543.25,434.45c-9.46,0-17.82,2.12-25.08,6.36c-7.26,4.24-12.6,10.12-16.03,17.62
		c-5.55-15.99-18.19-23.98-37.93-23.98c-8.97,0-16.85,2.12-23.61,6.36c-6.77,4.24-11.87,10.44-15.29,18.6l-1.96-22.02h-14.19
		c1.3,9.95,1.96,21.29,1.96,34.01v88.58h14.68v-70.72c0-12.89,3.3-23.08,9.91-30.59c6.61-7.5,15.45-11.26,26.55-11.26
		c9.62,0,16.68,2.81,21.17,8.44c4.49,5.63,6.73,14.64,6.73,27.04v77.08h14.93v-70.72c0-12.89,3.22-23.08,9.67-30.59
		c6.44-7.5,15.29-11.26,26.55-11.26c9.62,0,16.64,2.81,21.04,8.44c4.4,5.63,6.61,14.64,6.61,27.04v77.08h14.93v-78.06
		C583.87,450.27,570.33,434.45,543.25,434.45z"/>
	<path class="st0" d="M712.83,459.41c-3.75-8.16-9.26-14.35-16.52-18.6c-7.26-4.24-15.87-6.36-25.82-6.36
		c-10.77,0-20.27,2.65-28.51,7.95c-8.24,5.3-14.64,12.81-19.21,22.51c-4.57,9.71-6.85,20.92-6.85,33.65s2.24,23.86,6.73,33.4
		c4.48,9.54,10.85,16.88,19.09,22.02c8.24,5.14,17.82,7.71,28.75,7.71c10.11,0,18.8-2.16,26.06-6.48
		c7.26-4.32,12.68-10.56,16.27-18.72v23.49h14.93v-122.6h-14.93V459.41z M702.31,535.26c-7.02,8.81-16.88,13.21-29.61,13.21
		c-13.05,0-23.17-4.36-30.34-13.09c-7.18-8.72-10.77-21-10.77-36.83c0-15.99,3.59-28.51,10.77-37.56
		c7.18-9.05,17.21-13.58,30.1-13.58c12.89,0,22.84,4.4,29.85,13.21c7.01,8.81,10.52,21.29,10.52,37.44
		C712.83,514.06,709.32,526.45,702.31,535.26z"/>
	<path class="st0" d="M858.42,459.41c-3.76-8.16-9.26-14.35-16.52-18.6c-7.26-4.24-16.03-6.36-26.31-6.36
		c-10.77,0-20.31,2.53-28.63,7.59c-8.32,5.06-14.8,12.2-19.45,21.41c-4.65,9.22-6.97,19.86-6.97,31.93
		c0,11.91,2.33,22.47,6.97,31.69c4.65,9.22,11.13,16.39,19.45,21.53c8.32,5.14,17.86,7.71,28.63,7.71c10.28,0,19.09-2.24,26.43-6.73
		c7.34-4.48,12.88-10.89,16.64-19.21v31.57c0,12.89-3.14,22.67-9.42,29.36c-6.28,6.69-15.54,10.03-27.77,10.03
		c-8.65,0-16.31-0.98-23-2.94c-6.69-1.96-14.03-5.3-22.02-10.03l-2.94,12.97c13.54,8.81,29.45,13.21,47.72,13.21
		c17.13,0,30.1-4.57,38.91-13.7c8.81-9.14,13.21-22.6,13.21-40.38V437.38h-14.93V459.41z M847.53,530.12
		c-7.26,8.48-17.25,12.72-29.98,12.72c-12.89,0-23-4.2-30.34-12.6c-7.34-8.4-11.01-20.02-11.01-34.87
		c0-14.84,3.67-26.55,11.01-35.11c7.34-8.56,17.45-12.85,30.34-12.85c12.72,0,22.72,4.28,29.98,12.85
		c7.26,8.56,10.89,20.27,10.89,35.11C858.42,510.06,854.79,521.64,847.53,530.12z"/>
	<rect x="911.77" y="386.73" class="st0" width="19.82" height="19.09"/>
	<rect x="913.97" y="437.38" class="st0" width="14.68" height="122.6"/>
	<path class="st0" d="M1038.4,544.93c-5.79,2.37-11.79,3.55-17.99,3.55c-13.38,0-23.86-4.4-31.45-13.21
		c-7.59-8.81-11.38-21.04-11.38-36.71c0-15.99,3.83-28.51,11.5-37.56c7.67-9.05,18.11-13.58,31.32-13.58
		c6.2,0,12.19,1.18,17.99,3.55c5.79,2.37,11.87,6.16,18.23,11.38l5.87-11.75c-4.89-5.05-11.13-9.01-18.72-11.87
		c-7.59-2.85-15.54-4.28-23.86-4.28c-11.59,0-21.78,2.65-30.59,7.95c-8.81,5.3-15.58,12.81-20.31,22.51
		c-4.73,9.71-7.1,20.92-7.1,33.65c0,12.56,2.36,23.61,7.1,33.16c4.73,9.54,11.42,16.93,20.07,22.15c8.65,5.22,18.76,7.83,30.34,7.83
		c7.99,0,15.86-1.47,23.61-4.4c7.75-2.94,14.23-6.93,19.45-11.99l-5.87-11.5C1050.27,538.85,1044.19,542.57,1038.4,544.93z"/>
	<path class="st0" d="M838.58,124.47c0.81-25.13-9.13-50.78-26.59-68.61c-15.54-15.88-35.87-24.55-57.21-24.25
		c-20.73,0.23-42.54,8.03-63.05,22.55c-23.65,16.74-43.35,40.09-62.25,63.12c-1.41-2.24-2.81-4.48-4.23-6.73
		c-19.78-31.56-40.23-64.2-73.79-82.36c-71.18-38.52-123.82,18.06-166.34,67.8c1.48,0.65,2.83,1.59,3.99,2.79
		c2.28,2.37,3.52,5.48,3.5,8.77c20.94-24.58,42.67-49.46,67.38-64.73c28.92-17.87,55.99-18.83,85.2-3.03
		c30.51,16.51,50.02,47.65,68.89,77.77c2.19,3.49,4.38,6.99,6.59,10.47c-1.31,1.6-2.63,3.19-3.95,4.78
		c-34.05,41.02-69.34,77.59-126.55,74.7c-55.15-2.81-84.57-39.73-115.56-78.99c2.48-2.82,4.98-5.71,7.51-8.66
		c-0.67,0.11-1.35,0.18-2.04,0.18c-0.08,0-0.16,0-0.24,0c-3.35-0.06-6.48-1.43-8.8-3.84c-0.57-0.59-1.08-1.24-1.52-1.91
		c-1.08,1.25-2.16,2.5-3.23,3.73c-1.89-2.37-3.81-4.75-5.73-7.11c-20.97-25.72-43.27-37.58-68.17-36.24
		c-25.95,1.39-49.69,19.56-56.45,43.21c-3.44,12.03-1.78,24.95,4.68,36.35c7.29,12.87,19.64,22.44,33.9,26.26
		c1.5,0.4,3.02,0.74,4.54,1.02c3.34,0.61,6.72,0.91,10.14,0.91c20.61,0,42.62-11.03,65.59-32.9c3.6-3.43,7.22-7.13,10.87-11.05
		c32.39,41.02,63.61,79.17,123.86,82.23c2.46,0.12,4.87,0.19,7.26,0.19c58.96,0,95.25-37.63,130.12-79.63
		c0.44-0.53,0.88-1.06,1.32-1.6c22.04,33.07,47.95,62.76,92.7,69.42c31.6,4.7,64.28-4.04,87.44-23.36
		C827.34,169.82,837.8,148.65,838.58,124.47z M345.67,139.93c-23.55,22.42-45.17,32.04-64.27,28.56h0
		c-1.16-0.21-2.33-0.48-3.48-0.78c-10.7-2.86-20.36-10.35-25.83-20.01c-3.33-5.88-6.63-15.19-3.48-26.22
		c5.26-18.4,23.97-32.56,44.47-33.66c0.98-0.05,1.95-0.08,2.92-0.08c19.26,0,37.06,10.33,54.31,31.48c2.36,2.89,4.71,5.83,7.03,8.75
		C353.39,132.26,349.5,136.28,345.67,139.93z M799.87,175.56c-20.01,16.7-49.52,24.53-77.04,20.44
		c-41.05-6.1-64.41-34.19-85.88-67.03c19.19-23.41,39.05-47.51,62.4-64.04c12.77-9.04,32.78-19.87,55.57-20.13c0.24,0,0.47,0,0.71,0
		c17.46,0,34.1,7.19,46.93,20.29c14.99,15.31,23.52,37.35,22.83,58.95C824.74,144.36,815.91,162.17,799.87,175.56z"/>
	<path class="st1" d="M530.09,167.55c-3.5-3.63-8.17-5.46-12.86-5.46c-3.71,0-7.42,1.17-10.56,3.48c1.94,0.99,3.74,2.29,5.29,3.91
		c3.67,3.82,5.64,8.83,5.54,14.13c-0.1,5.04-2.07,9.75-5.55,13.36c6.01,1.85,12.82,0.48,17.66-4.18
		C536.7,185.95,536.91,174.64,530.09,167.55z"/>
	<path class="st2" d="M509.32,172.01c-1.62-1.69-3.53-2.94-5.58-3.76c-0.65-0.26-1.31-0.47-1.98-0.64
		c-0.71-0.18-1.42-0.32-2.14-0.41c-0.65-0.08-1.29-0.13-1.94-0.13c-2.95,0-5.89,0.81-8.49,2.41c7.17,7.65,6.89,19.7-0.69,26.99
		c-0.01,0.01-0.02,0.02-0.03,0.02c4.83,3.35,11.1,3.77,16.3,1.23c0.65-0.32,1.28-0.69,1.89-1.1c0.57-0.38,1.12-0.81,1.65-1.28
		c0.19-0.17,0.39-0.32,0.57-0.5C515.31,188.68,515.5,178.43,509.32,172.01z"/>
	<path class="st3" d="M486.38,171.83c-0.02-0.03-0.05-0.05-0.08-0.07c-0.43-0.44-0.89-0.85-1.36-1.23
		c-0.48-0.39-0.99-0.75-1.51-1.07c-2.52-1.58-5.39-2.39-8.27-2.39c-2.88,0-5.77,0.8-8.3,2.39c0.84,2.12,1.26,4.41,1.22,6.76
		c-0.09,4.66-1.99,9-5.34,12.23c-0.46,0.45-0.95,0.86-1.45,1.24c0.69,1.35,1.58,2.6,2.66,3.72c5,5.19,12.75,6.14,18.77,2.79
		c0.54-0.3,1.06-0.63,1.56-1c0.49-0.36,0.97-0.74,1.42-1.16c0.08-0.07,0.17-0.14,0.25-0.22
		C492.14,187.88,492.33,178.01,486.38,171.83z"/>
	<path class="st4" d="M463.84,171.99c-0.19-0.65-0.43-1.28-0.72-1.9c-0.26-0.56-0.56-1.12-0.9-1.65c-0.47-0.73-1.02-1.44-1.65-2.09
		c-2.55-2.65-5.97-4.14-9.65-4.21c-0.09,0-0.18,0-0.27,0c-3.57,0-6.95,1.36-9.53,3.85c-2.65,2.55-4.14,5.97-4.21,9.65
		c-0.07,3.67,1.29,7.15,3.84,9.8c4.26,4.43,10.79,5.37,16.03,2.78c0.56-0.28,1.1-0.61,1.62-0.97c0.55-0.38,1.09-0.8,1.59-1.26
		c0.07-0.06,0.14-0.12,0.21-0.18C464.02,182.12,465.24,176.76,463.84,171.99z"/>
	<path class="st5" d="M425.19,145.32c-0.08,0-0.16,0-0.25,0c-3.26,0-6.34,1.24-8.7,3.51c-2.42,2.33-3.78,5.45-3.85,8.81
		c-0.06,3.35,1.18,6.53,3.51,8.95c2.33,2.42,5.45,3.78,8.81,3.85c3.36,0.05,6.53-1.18,8.95-3.51c2.42-2.33,3.78-5.45,3.85-8.81
		c0.06-3.35-1.18-6.53-3.51-8.95C431.67,146.75,428.54,145.38,425.19,145.32z"/>
	<path class="st6" d="M409.41,125.9c-2.01-2.09-4.71-3.26-7.6-3.32c-0.07,0-0.14,0-0.21,0c-2.81,0-5.47,1.07-7.51,3.03
		c-2.09,2.01-3.26,4.71-3.32,7.6c-0.06,2.89,1.02,5.64,3.03,7.72s4.71,3.26,7.6,3.32c2.87,0.06,5.64-1.02,7.72-3.03
		C413.42,137.08,413.56,130.21,409.41,125.9z"/>
	<path class="st7" d="M386.58,101.2c-1.11-1.15-2.45-1.95-3.88-2.38c-0.86-0.26-1.74-0.39-2.63-0.39c-2.26,0-4.52,0.84-6.27,2.52
		c-2.89,2.79-3.52,7.05-1.85,10.48c0.4,0.83,0.94,1.61,1.61,2.31c1.67,1.74,3.93,2.72,6.34,2.77c2.4,0.05,4.7-0.85,6.44-2.53
		c1.74-1.67,2.72-3.93,2.77-6.34C389.15,105.23,388.25,102.94,386.58,101.2z"/>
	<path class="st8" d="M362.48,77.12c-1.47-1.53-3.45-2.39-5.58-2.43c-0.05,0-0.1,0-0.16,0c-2.07,0-4.02,0.79-5.51,2.22
		c-1.53,1.47-2.39,3.45-2.43,5.58c-0.04,2.12,0.75,4.14,2.22,5.67c1.47,1.53,3.45,2.39,5.58,2.43c2.13,0.05,4.13-0.75,5.67-2.22
		c1.53-1.47,2.39-3.45,2.43-5.58C364.74,80.66,363.96,78.65,362.48,77.12z"/>
	<path class="st9" d="M332.75,58.87c-1.42-1.48-3.32-2.22-5.23-2.22c-1.81,0-3.63,0.67-5.03,2.02c-2.88,2.77-2.97,7.38-0.2,10.26
		c1.34,1.4,3.15,2.19,5.09,2.22c1.96,0.04,3.77-0.68,5.17-2.03C335.44,66.35,335.52,61.75,332.75,58.87z"/>
	<path class="st10" d="M301.46,52.52c-1.13-1.17-2.64-1.83-4.27-1.86c-0.04,0-0.08,0-0.12,0c-1.58,0-3.08,0.6-4.22,1.7
		c-2.42,2.33-2.49,6.19-0.16,8.61c1.13,1.17,2.64,1.83,4.27,1.86c1.64,0.05,3.17-0.57,4.34-1.7s1.83-2.64,1.86-4.27
		C303.19,55.24,302.59,53.7,301.46,52.52z"/>
</g>
</svg>
