<?xml version="1.0" encoding="utf-8"?>
<!-- Generator: Adobe Illustrator 28.1.0, SVG Export Plug-In . SVG Version: 6.00 Build 0)  -->
<svg version="1.1" id="Layer_1" xmlns="http://www.w3.org/2000/svg" xmlns:xlink="http://www.w3.org/1999/xlink" x="0px" y="0px"
	 viewBox="0 0 630 240" style="enable-background:new 0 0 630 240;" xml:space="preserve">
<style type="text/css">
	.st0{fill:#FFFFFF;}
	.st1{fill:#EE1B51;}
	.st2{fill:#F0274D;}
	.st3{fill:#F23349;}
	.st4{fill:#F44045;}
	.st5{fill:#F64C41;}
	.st6{fill:#F7583E;}
	.st7{fill:#F9643A;}
	.st8{fill:#FB7136;}
	.st9{fill:#FD7D32;}
	.st10{fill:#FF892E;}
</style>
<g>
	<path class="st0" d="M617.18,126.31c0.81-25.13-9.13-50.78-26.59-68.61c-15.54-15.88-35.87-24.55-57.21-24.25
		c-20.73,0.23-42.54,8.03-63.05,22.55c-23.65,16.74-43.35,40.09-62.25,63.12c-1.41-2.24-2.81-4.48-4.23-6.73
		c-19.78-31.56-40.23-64.2-73.79-82.36C258.88-8.5,206.24,48.08,163.72,97.83c1.48,0.65,2.83,1.59,3.99,2.79
		c2.28,2.37,3.52,5.48,3.5,8.77c20.94-24.58,42.67-49.46,67.38-64.73c28.92-17.87,55.99-18.83,85.2-3.03
		c30.51,16.51,50.02,47.65,68.89,77.77c2.19,3.49,4.38,6.99,6.59,10.47c-1.31,1.6-2.63,3.19-3.95,4.78
		c-34.05,41.02-69.34,77.59-126.55,74.7c-55.15-2.81-84.57-39.73-115.56-78.99c2.48-2.82,4.98-5.71,7.51-8.66
		c-0.67,0.11-1.35,0.18-2.04,0.18c-0.08,0-0.16,0-0.24,0c-3.35-0.06-6.48-1.43-8.8-3.84c-0.57-0.59-1.08-1.24-1.52-1.91
		c-1.08,1.25-2.16,2.5-3.23,3.73c-1.89-2.37-3.81-4.75-5.73-7.11C118.17,87,95.87,75.15,70.98,76.48
		c-25.95,1.39-49.69,19.56-56.45,43.21c-3.44,12.03-1.78,24.95,4.68,36.35c7.29,12.87,19.64,22.44,33.9,26.26
		c1.5,0.4,3.02,0.74,4.54,1.02c3.34,0.61,6.72,0.91,10.14,0.91c20.61,0,42.62-11.03,65.59-32.9c3.6-3.43,7.22-7.13,10.87-11.05
		c32.39,41.02,63.61,79.17,123.86,82.23c2.46,0.12,4.87,0.19,7.26,0.19c58.96,0,95.25-37.63,130.12-79.63
		c0.44-0.53,0.88-1.06,1.32-1.6c22.04,33.07,47.95,62.76,92.7,69.42c31.6,4.7,64.28-4.04,87.44-23.36
		C605.94,171.66,616.4,150.49,617.18,126.31z M124.27,141.78C100.71,164.2,79.1,173.81,60,170.34h0c-1.16-0.21-2.33-0.48-3.48-0.78
		c-10.7-2.86-20.36-10.35-25.83-20.01c-3.33-5.88-6.63-15.19-3.48-26.22c5.26-18.4,23.97-32.56,44.47-33.66
		c0.98-0.05,1.95-0.08,2.92-0.08c19.26,0,37.06,10.33,54.31,31.48c2.36,2.89,4.71,5.83,7.03,8.75
		C132,134.1,128.11,138.12,124.27,141.78z M578.48,177.4c-20.01,16.7-49.52,24.53-77.04,20.44c-41.05-6.1-64.41-34.19-85.88-67.03
		c19.19-23.41,39.05-47.51,62.4-64.04c12.77-9.04,32.78-19.87,55.57-20.13c0.24,0,0.47,0,0.71,0c17.46,0,34.1,7.19,46.93,20.29
		c14.99,15.31,23.52,37.35,22.83,58.95C603.34,146.2,594.52,164.01,578.48,177.4z"/>
	<path class="st1" d="M308.69,169.39c-3.5-3.63-8.17-5.46-12.86-5.46c-3.71,0-7.42,1.17-10.56,3.48c1.94,0.99,3.74,2.29,5.29,3.91
		c3.67,3.82,5.64,8.83,5.54,14.13c-0.1,5.04-2.07,9.75-5.55,13.36c6.01,1.85,12.82,0.48,17.66-4.18
		C315.3,187.79,315.52,176.48,308.69,169.39z"/>
	<path class="st2" d="M287.93,173.86c-1.62-1.69-3.53-2.94-5.58-3.76c-0.65-0.26-1.31-0.47-1.98-0.64
		c-0.71-0.18-1.42-0.32-2.14-0.41c-0.65-0.08-1.29-0.13-1.94-0.13c-2.95,0-5.89,0.81-8.49,2.41c7.17,7.65,6.89,19.7-0.69,26.99
		c-0.01,0.01-0.02,0.02-0.03,0.02c4.83,3.35,11.1,3.77,16.3,1.23c0.65-0.32,1.28-0.69,1.89-1.1c0.57-0.38,1.12-0.81,1.65-1.28
		c0.19-0.17,0.39-0.32,0.57-0.5C293.91,190.52,294.11,180.28,287.93,173.86z"/>
	<path class="st3" d="M264.98,173.68c-0.02-0.03-0.05-0.05-0.08-0.07c-0.43-0.44-0.89-0.85-1.36-1.23
		c-0.48-0.39-0.99-0.75-1.51-1.07c-2.52-1.58-5.39-2.39-8.27-2.39c-2.88,0-5.77,0.8-8.3,2.39c0.84,2.12,1.26,4.41,1.22,6.76
		c-0.09,4.66-1.99,9-5.34,12.23c-0.46,0.45-0.95,0.86-1.45,1.24c0.69,1.35,1.58,2.6,2.66,3.72c5,5.19,12.75,6.14,18.77,2.79
		c0.54-0.3,1.06-0.63,1.56-1c0.49-0.36,0.97-0.74,1.42-1.16c0.08-0.07,0.17-0.14,0.25-0.22
		C270.74,189.72,270.93,179.86,264.98,173.68z"/>
	<path class="st4" d="M242.44,173.83c-0.19-0.65-0.43-1.28-0.72-1.9c-0.26-0.56-0.56-1.12-0.9-1.65c-0.47-0.73-1.02-1.44-1.65-2.09
		c-2.55-2.65-5.97-4.14-9.65-4.21c-0.09,0-0.18,0-0.27,0c-3.57,0-6.95,1.36-9.53,3.85c-2.65,2.55-4.14,5.97-4.21,9.65
		c-0.07,3.67,1.29,7.15,3.84,9.8c4.26,4.43,10.79,5.37,16.03,2.78c0.56-0.28,1.1-0.61,1.62-0.97c0.55-0.38,1.09-0.8,1.59-1.26
		c0.07-0.06,0.14-0.12,0.21-0.18C242.62,183.97,243.84,178.6,242.44,173.83z"/>
	<path class="st5" d="M203.79,147.16c-0.08,0-0.16,0-0.25,0c-3.26,0-6.34,1.24-8.7,3.51c-2.42,2.33-3.78,5.45-3.85,8.81
		c-0.06,3.35,1.18,6.53,3.51,8.95c2.33,2.42,5.45,3.78,8.81,3.85c3.36,0.05,6.53-1.18,8.95-3.51c2.42-2.33,3.78-5.45,3.85-8.81
		c0.06-3.35-1.18-6.53-3.51-8.95C210.27,148.59,207.15,147.23,203.79,147.16z"/>
	<path class="st6" d="M188.02,127.74c-2.01-2.09-4.71-3.26-7.6-3.32c-0.07,0-0.14,0-0.21,0c-2.81,0-5.47,1.07-7.51,3.03
		c-2.09,2.01-3.26,4.71-3.32,7.6s1.02,5.64,3.03,7.72c2.01,2.09,4.71,3.26,7.6,3.32c2.87,0.06,5.64-1.02,7.72-3.03
		C192.03,138.92,192.16,132.05,188.02,127.74z"/>
	<path class="st7" d="M165.18,103.05c-1.11-1.15-2.45-1.95-3.88-2.38c-0.86-0.26-1.74-0.39-2.63-0.39c-2.26,0-4.52,0.84-6.27,2.52
		c-2.89,2.79-3.52,7.05-1.85,10.48c0.4,0.83,0.94,1.61,1.61,2.31c1.67,1.74,3.93,2.72,6.34,2.77c2.4,0.05,4.7-0.85,6.44-2.53
		c1.74-1.67,2.72-3.93,2.77-6.34C167.75,107.08,166.86,104.79,165.18,103.05z"/>
	<path class="st8" d="M141.09,78.96c-1.47-1.53-3.45-2.39-5.58-2.43c-0.05,0-0.1,0-0.16,0c-2.07,0-4.02,0.79-5.51,2.22
		c-1.53,1.47-2.39,3.45-2.43,5.58s0.75,4.14,2.22,5.67c1.47,1.53,3.45,2.39,5.58,2.43c2.13,0.05,4.13-0.75,5.67-2.22
		c1.53-1.47,2.39-3.45,2.43-5.58C143.35,82.5,142.56,80.49,141.09,78.96z"/>
	<path class="st9" d="M111.35,60.71c-1.42-1.48-3.32-2.22-5.23-2.22c-1.81,0-3.63,0.67-5.03,2.02c-2.88,2.77-2.97,7.38-0.2,10.26
		c1.34,1.4,3.15,2.19,5.09,2.22c1.96,0.04,3.77-0.68,5.17-2.03C114.04,68.19,114.13,63.59,111.35,60.71z"/>
	<path class="st10" d="M80.07,54.37c-1.13-1.17-2.64-1.83-4.27-1.86c-0.04,0-0.08,0-0.12,0c-1.58,0-3.08,0.6-4.22,1.7
		c-2.42,2.33-2.49,6.19-0.16,8.61c1.13,1.17,2.64,1.83,4.27,1.86c1.64,0.05,3.17-0.57,4.34-1.7c1.17-1.13,1.83-2.64,1.86-4.27
		C81.8,57.08,81.19,55.54,80.07,54.37z"/>
</g>
</svg>
