<?xml version="1.0" encoding="utf-8"?>
<!-- Generator: Adobe Illustrator 24.1.1, SVG Export Plug-In . SVG Version: 6.00 Build 0)  -->
<svg version="1.1" id="Ebene_1" xmlns="http://www.w3.org/2000/svg" xmlns:xlink="http://www.w3.org/1999/xlink" x="0px" y="0px"
	 viewBox="0 0 284.7 307.4" style="enable-background:new 0 0 284.7 307.4;" xml:space="preserve">
<g>
	<path d="M142.2,259.7c-8.8,0-17.7,0.1-26.5,0c-7.6-0.1-11.3-3.7-11.4-11.4c-0.2-19.2-7.6-35.1-21.3-48.4
		c-27-26.1-34.1-65.8-17.8-99.3c15.9-33,52-52.4,88.1-47.6c37.1,5,66.6,32.4,73.3,69.3c5.3,29.3-2.6,55.3-23.7,76.4
		c-14.3,14.3-22.4,30.8-22.6,51c-0.1,6.4-4,10-10.6,10C160.5,259.8,151.3,259.7,142.2,259.7z M169,248.5c0.2-0.8,0.4-1.4,0.4-2.1
		c1-22.5,10.2-40.9,26.5-56.3c10.5-10,16.8-22.5,19.8-36.8c7.3-34.9-11.4-70.5-44.4-84.4c-32.7-13.8-71.2-2.2-90.9,27.4
		c-20.2,30.2-16.1,70,10.2,95.5c13.4,13,21.7,28.4,24.2,47c0.4,3.2,0.6,6.5,0.9,9.8C133.6,248.5,151.2,248.5,169,248.5z"/>
	<path d="M142.5,264.4c9.1,0,18.3,0.1,27.5,0c4,0,7.5,0.5,7.9,5.4c0.3,3.6-2.6,5.7-7.7,5.7c-18.6,0-37.3,0-55.9,0
		c-3.9,0-7.2-1-7.3-5.5c-0.1-4.6,3.1-5.7,7.1-5.6C123.5,264.5,133,264.4,142.5,264.4z"/>
	<path d="M142.4,292.5c-8.3,0-16.6,0-24.9,0c-4,0-7.2-1.4-7.1-5.8c0.1-4.1,3.1-5.4,6.9-5.4c16.6,0.1,33.2,0.1,49.8,0
		c4,0,7.2,1.1,7,5.7c-0.1,4.5-3.5,5.5-7.4,5.5C158.7,292.5,150.5,292.5,142.4,292.5z"/>
	<path d="M68.2,208c-1.3,2.1-2.1,3.8-3.3,5c-7.6,7.7-15.2,15.3-22.9,22.9c-2.7,2.6-5.6,4-8.7,1c-3-3-1.9-6,0.8-8.7
		c7.8-7.7,15.4-15.6,23.4-23.1c1.5-1.4,4.5-2.1,6.6-1.7C65.6,203.7,66.7,206.3,68.2,208z"/>
	<path d="M136.9,22.7c0-5.5,0-11,0-16.5c0-3.8,1.7-6.3,5.5-6.3c3.8,0,5.4,2.7,5.4,6.4c0,11.1,0,22.3,0,33.4c0,3.7-1.7,6.3-5.6,6.2
		c-3.9,0-5.4-2.6-5.4-6.4C137,34,136.9,28.4,136.9,22.7z"/>
	<path d="M262,141c-5.6,0-11.3,0-16.9,0c-3.7,0-6.3-1.5-6.4-5.3c-0.1-3.9,2.6-5.5,6.3-5.5c11.1,0,22.3,0,33.4,0
		c3.7,0,6.4,1.6,6.4,5.4c0,3.7-2.3,5.4-6.3,5.2c-5.5-0.3-10.9-0.1-16.4-0.1C262,140.8,262,140.9,262,141z"/>
	<path d="M22.5,124.5c5.5,0,11,0.1,16.5,0c3.6-0.1,5.7,1.3,6,5.1c0.2,3.6-1.9,5.3-5.1,5.4c-11.6,0.1-23.2,0.2-34.8,0.1
		c-3.3,0-5.2-2-5-5.5c0.3-3.4,2.1-5,5.6-5C11.2,124.6,16.9,124.5,22.5,124.5z"/>
	<path d="M220.5,202c2,1.3,3.8,2,5,3.2c7.8,7.7,15.6,15.5,23.3,23.2c2.7,2.7,3.6,5.8,0.6,8.7c-2.9,2.7-5.8,1.6-8.3-0.9
		c-7.9-7.9-15.9-15.6-23.5-23.8c-1.4-1.5-1.7-4.5-1.4-6.6C216.5,204.4,218.8,203.4,220.5,202z"/>
	<path d="M85.8,58.2c-1.1,1.5-1.9,3.6-3.3,4.1c-1.8,0.6-4.8,0.6-5.9-0.5C67.8,53.5,59.2,44.9,50.9,36c-1.2-1.3-0.8-5.2,0.3-7
		c1.8-2.7,5.1-2.5,7.4-0.2c8.4,8.2,16.8,16.6,25,25C84.6,54.9,84.9,56.5,85.8,58.2z"/>
	<path d="M231.2,32.4c-1.4,2.1-2.2,4-3.5,5.3c-7.6,7.7-15.2,15.3-22.9,22.9c-2.7,2.7-5.7,3.8-8.7,0.8c-2.7-2.8-1.9-5.7,0.7-8.3
		c7.9-7.9,15.6-15.9,23.7-23.5c1.5-1.4,4.5-1.9,6.6-1.6C228.6,28.2,229.7,30.6,231.2,32.4z"/>
	<path d="M119,298.2c15.5,0,30.8,0,46,0c-0.6,4.5-4.6,8.6-10.2,8.9c-8.3,0.5-16.6,0.5-24.9,0C124.9,306.9,121.4,303.6,119,298.2z"/>
	<path d="M140.6,78.5c3.6-0.3,6.4,0.9,6.7,4.9c0.3,4-2.3,5.4-5.9,6c-26.9,4-38.2,14.3-44.7,40.9c-0.8,3.4-2.7,5.6-6.2,5.1
		c-4.2-0.6-5-3.7-4.5-7.5C89,101.2,113.6,79,140.6,78.5z"/>
</g>
</svg>
