<?xml version='1.0' encoding='iso-8859-1'?>
<svg version="1.1" xmlns="http://www.w3.org/2000/svg" viewBox="0 0 490 490" xmlns:xlink="http://www.w3.org/1999/xlink" enable-background="new 0 0 490 490">
  <path d="m475,70h-460c-8.284,0-15,6.716-15,15v90c0,8.284 6.716,15 15,15h15v215c0,8.284 6.716,15 15,15h400.001c8.284,0 15-6.716 15-15v-215h14.999c8.284,0 15-6.716 15-15v-90c0-8.284-6.716-15-15-15zm-44.999,320h-370.001v-200h370.001v200zm29.999-230h-430v-60h430v60zm-275.005,150h120.011c8.284,0 15-6.716 15-15v-60c0-8.284-6.716-15-15-15h-120.011c-8.284,0-15,6.716-15,15v60c0,8.284 6.716,15 15,15zm15-60h90.011v30h-90.011v-30z"/>
</svg>
