<?xml version="1.0" encoding="utf-8" standalone="no"?>
<!DOCTYPE svg PUBLIC "-//W3C//DTD SVG 1.1//EN"
  "http://www.w3.org/Graphics/SVG/1.1/DTD/svg11.dtd">
<svg xmlns:xlink="http://www.w3.org/1999/xlink" width="405pt" height="286.2pt" viewBox="0 0 405 286.2" xmlns="http://www.w3.org/2000/svg" version="1.1">
 <metadata>
  <rdf:RDF xmlns:dc="http://purl.org/dc/elements/1.1/" xmlns:cc="http://creativecommons.org/ns#" xmlns:rdf="http://www.w3.org/1999/02/22-rdf-syntax-ns#">
   <cc:Work>
    <dc:type rdf:resource="http://purl.org/dc/dcmitype/StillImage"/>
    <dc:date>2022-06-03T11:32:26.140513</dc:date>
    <dc:format>image/svg+xml</dc:format>
    <dc:creator>
     <cc:Agent>
      <dc:title>Matplotlib v3.5.1, https://matplotlib.org/</dc:title>
     </cc:Agent>
    </dc:creator>
   </cc:Work>
  </rdf:RDF>
 </metadata>
 <defs>
  <style type="text/css">*{stroke-linejoin: round; stroke-linecap: butt}</style>
 </defs>
 <g id="figure_1">
  <g id="patch_1">
   <path d="M 0 286.2
L 405 286.2
L 405 0
L 0 0
L 0 286.2
z
" style="fill: none"/>
  </g>
  <g id="axes_1">
   <g id="patch_2">
    <path d="M 7.2 279
L 397.8 279
L 397.8 7.2
L 7.2 7.2
z
" style="fill: #ffffff"/>
   </g>
   <g id="PathCollection_1">
    <defs>
     <path id="mf03ccfc9b4" d="M 0 15.811388
C 4.193229 15.811388 8.215279 14.145401 11.18034 11.18034
C 14.145401 8.215279 15.811388 4.193229 15.811388 0
C 15.811388 -4.193229 14.145401 -8.215279 11.18034 -11.18034
C 8.215279 -14.145401 4.193229 -15.811388 0 -15.811388
C -4.193229 -15.811388 -8.215279 -14.145401 -11.18034 -11.18034
C -14.145401 -8.215279 -15.811388 -4.193229 -15.811388 0
C -15.811388 4.193229 -14.145401 8.215279 -11.18034 11.18034
C -8.215279 14.145401 -4.193229 15.811388 0 15.811388
z
" style="stroke: #ffffff; stroke-opacity: 0.1; stroke-width: 2.529822"/>
    </defs>
    <g clip-path="url(#p4fb999ab0b)">
     <use xlink:href="#mf03ccfc9b4" x="53.980543" y="50.741825" style="fill: #a00404; fill-opacity: 0.1; stroke: #ffffff; stroke-opacity: 0.1; stroke-width: 2.529822"/>
    </g>
   </g>
   <g id="PathCollection_2"/>
   <g id="PathCollection_3">
    <defs>
     <path id="m0e6f05ace3" d="M 0 15.811388
C 4.193229 15.811388 8.215279 14.145401 11.18034 11.18034
C 14.145401 8.215279 15.811388 4.193229 15.811388 0
C 15.811388 -4.193229 14.145401 -8.215279 11.18034 -11.18034
C 8.215279 -14.145401 4.193229 -15.811388 0 -15.811388
C -4.193229 -15.811388 -8.215279 -14.145401 -11.18034 -11.18034
C -14.145401 -8.215279 -15.811388 -4.193229 -15.811388 0
C -15.811388 4.193229 -14.145401 8.215279 -11.18034 11.18034
C -8.215279 14.145401 -4.193229 15.811388 0 15.811388
z
" style="stroke: #ffffff; stroke-opacity: 0.28; stroke-width: 2.529822"/>
    </defs>
    <g clip-path="url(#p4fb999ab0b)">
     <use xlink:href="#m0e6f05ace3" x="74.025998" y="112.373114" style="fill: #a00404; fill-opacity: 0.28; stroke: #ffffff; stroke-opacity: 0.28; stroke-width: 2.529822"/>
    </g>
   </g>
   <g id="PathCollection_4"/>
   <g id="PathCollection_5">
    <defs>
     <path id="m6c2681cd2d" d="M 0 15.811388
C 4.193229 15.811388 8.215279 14.145401 11.18034 11.18034
C 14.145401 8.215279 15.811388 4.193229 15.811388 0
C 15.811388 -4.193229 14.145401 -8.215279 11.18034 -11.18034
C 8.215279 -14.145401 4.193229 -15.811388 0 -15.811388
C -4.193229 -15.811388 -8.215279 -14.145401 -11.18034 -11.18034
C -14.145401 -8.215279 -15.811388 -4.193229 -15.811388 0
C -15.811388 4.193229 -14.145401 8.215279 -11.18034 11.18034
C -8.215279 14.145401 -4.193229 15.811388 0 15.811388
z
" style="stroke: #ffffff; stroke-opacity: 0.46; stroke-width: 2.529822"/>
    </defs>
    <g clip-path="url(#p4fb999ab0b)">
     <use xlink:href="#m6c2681cd2d" x="96.935088" y="151.580971" style="fill: #a00404; fill-opacity: 0.46; stroke: #ffffff; stroke-opacity: 0.46; stroke-width: 2.529822"/>
    </g>
   </g>
   <g id="PathCollection_6"/>
   <g id="PathCollection_7">
    <defs>
     <path id="m333384092e" d="M 0 15.811388
C 4.193229 15.811388 8.215279 14.145401 11.18034 11.18034
C 14.145401 8.215279 15.811388 4.193229 15.811388 0
C 15.811388 -4.193229 14.145401 -8.215279 11.18034 -11.18034
C 8.215279 -14.145401 4.193229 -15.811388 0 -15.811388
C -4.193229 -15.811388 -8.215279 -14.145401 -11.18034 -11.18034
C -14.145401 -8.215279 -15.811388 -4.193229 -15.811388 0
C -15.811388 4.193229 -14.145401 8.215279 -11.18034 11.18034
C -8.215279 14.145401 -4.193229 15.811388 0 15.811388
z
" style="stroke: #ffffff; stroke-opacity: 0.64; stroke-width: 2.529822"/>
    </defs>
    <g clip-path="url(#p4fb999ab0b)">
     <use xlink:href="#m333384092e" x="128.435088" y="163.136961" style="fill: #a00404; fill-opacity: 0.64; stroke: #ffffff; stroke-opacity: 0.64; stroke-width: 2.529822"/>
    </g>
   </g>
   <g id="PathCollection_8"/>
   <g id="PathCollection_9">
    <defs>
     <path id="m95a771e6bf" d="M 0 15.811388
C 4.193229 15.811388 8.215279 14.145401 11.18034 11.18034
C 14.145401 8.215279 15.811388 4.193229 15.811388 0
C 15.811388 -4.193229 14.145401 -8.215279 11.18034 -11.18034
C 8.215279 -14.145401 4.193229 -15.811388 0 -15.811388
C -4.193229 -15.811388 -8.215279 -14.145401 -11.18034 -11.18034
C -14.145401 -8.215279 -15.811388 -4.193229 -15.811388 0
C -15.811388 4.193229 -14.145401 8.215279 -11.18034 11.18034
C -8.215279 14.145401 -4.193229 15.811388 0 15.811388
z
" style="stroke: #ffffff; stroke-opacity: 0.82; stroke-width: 2.529822"/>
    </defs>
    <g clip-path="url(#p4fb999ab0b)">
     <use xlink:href="#m95a771e6bf" x="151.344179" y="161.278947" style="fill: #a00404; fill-opacity: 0.82; stroke: #ffffff; stroke-opacity: 0.82; stroke-width: 2.529822"/>
    </g>
   </g>
   <g id="PathCollection_10"/>
   <g id="PathCollection_11">
    <defs>
     <path id="mb85039c881" d="M 0 15.811388
C 4.193229 15.811388 8.215279 14.145401 11.18034 11.18034
C 14.145401 8.215279 15.811388 4.193229 15.811388 0
C 15.811388 -4.193229 14.145401 -8.215279 11.18034 -11.18034
C 8.215279 -14.145401 4.193229 -15.811388 0 -15.811388
C -4.193229 -15.811388 -8.215279 -14.145401 -11.18034 -11.18034
C -14.145401 -8.215279 -15.811388 -4.193229 -15.811388 0
C -15.811388 4.193229 -14.145401 8.215279 -11.18034 11.18034
C -8.215279 14.145401 -4.193229 15.811388 0 15.811388
z
" style="stroke: #ffffff; stroke-width: 2.529822"/>
    </defs>
    <g clip-path="url(#p4fb999ab0b)">
     <use xlink:href="#mb85039c881" x="174.25327" y="161.438862" style="fill: #a00404; stroke: #ffffff; stroke-width: 2.529822"/>
    </g>
   </g>
   <g id="PathCollection_12"/>
   <g id="line2d_1">
    <path d="M 24.954545 19.554545
L 28.541322 34.059608
L 32.128099 47.771905
L 35.714876 60.698769
L 39.301653 72.849433
L 42.88843 84.234993
L 46.475207 94.868362
L 50.061983 104.76422
L 53.64876 113.938961
L 57.235537 122.410621
L 60.822314 130.198815
L 64.409091 137.324654
L 67.995868 143.810666
L 71.582645 149.680707
L 75.169421 154.959865
L 78.756198 159.674365
L 82.342975 163.851465
L 85.929752 167.519347
L 89.516529 170.707011
L 93.103306 173.444156
L 96.690083 175.761069
L 100.27686 177.6885
L 103.863636 179.257548
L 107.450413 180.499534
L 111.03719 181.445882
L 114.623967 182.127992
L 118.210744 182.57712
L 121.797521 182.824253
L 125.384298 182.899992
L 128.971074 182.834425
L 132.557851 182.657015
L 136.144628 182.396482
L 139.731405 182.08069
L 143.318182 181.736539
L 146.904959 181.38986
L 150.491736 181.065311
L 154.078512 180.786284
L 157.665289 180.574809
L 161.252066 180.451471
L 164.838843 180.435329
L 168.42562 180.543841
L 172.012397 180.792792
L 175.599174 181.196239
L 179.18595 181.76645
L 182.772727 182.513858
L 186.359504 183.447021
L 189.946281 184.572586
L 193.533058 185.895266
L 197.119835 187.417819
L 200.706612 189.14104
L 204.293388 191.063753
L 207.880165 193.182821
L 211.466942 195.493155
L 215.053719 197.987735
L 218.640496 200.657639
L 222.227273 203.492073
L 225.81405 206.478421
L 229.400826 209.602286
L 232.987603 212.847554
L 236.57438 216.196452
L 240.161157 219.62962
L 243.747934 223.126187
L 247.334711 226.663851
L 250.921488 230.218968
L 254.508264 233.766646
L 258.095041 237.280839
L 261.681818 240.734452
L 265.268595 244.099447
L 268.855372 247.346951
L 272.442149 250.44737
L 276.028926 253.370508
L 279.615702 256.085681
L 283.202479 258.561839
L 286.789256 260.76769
L 290.376033 262.671818
L 293.96281 264.24281
L 297.549587 265.449379
L 301.136364 266.260484
L 304.72314 266.645455
L 308.309917 266.574109
L 311.896694 266.016873
L 315.483471 264.944898
L 319.070248 263.330171
L 322.657025 261.145627
L 326.243802 258.365253
L 329.830579 254.964191
L 333.417355 250.918835
L 337.004132 246.206925
L 340.590909 240.807633
L 344.177686 234.701645
L 347.764463 227.871235
L 351.35124 220.300339
L 354.938017 211.974612
L 358.524793 202.881489
L 362.11157 193.010234
L 365.698347 182.351977
L 369.285124 170.899756
L 372.871901 158.648539
L 376.458678 145.595247
L 380.045455 131.738761
" clip-path="url(#p4fb999ab0b)" style="fill: none; stroke: #000000; stroke-width: 8; stroke-linecap: square"/>
   </g>
  </g>
 </g>
 <defs>
  <clipPath id="p4fb999ab0b">
   <rect x="7.2" y="7.2" width="390.6" height="271.8"/>
  </clipPath>
 </defs>
</svg>
