<?xml version="1.0" encoding="UTF-8"?>
<svg id="Layer_1" data-name="Layer 1" xmlns="http://www.w3.org/2000/svg" version="1.1" viewBox="0 0 1100 630">
  <defs>
    <style>
      .cls-1 {
        fill: #ff892e;
      }

      .cls-1, .cls-2, .cls-3, .cls-4, .cls-5, .cls-6, .cls-7, .cls-8, .cls-9, .cls-10, .cls-11 {
        stroke-width: 0px;
      }

      .cls-2 {
        fill: #f23349;
      }

      .cls-3 {
        fill: #fd7d32;
      }

      .cls-4 {
        fill: #f64c41;
      }

      .cls-5 {
        fill: #f9643a;
      }

      .cls-6 {
        fill: #fb7136;
      }

      .cls-7 {
        fill: #f7583e;
      }

      .cls-8 {
        fill: #ee1b51;
      }

      .cls-9 {
        fill: #f44045;
      }

      .cls-10 {
        fill: #fff;
      }

      .cls-11 {
        fill: #f0274d;
      }
    </style>
  </defs>
  <g>
    <path class="cls-10" d="M842.03,125.19c.81-25.13-9.13-50.78-26.59-68.61-15.54-15.88-35.87-24.55-57.21-24.25-20.73.23-42.54,8.03-63.05,22.55-23.65,16.74-43.35,40.09-62.25,63.12-1.41-2.24-2.81-4.48-4.23-6.73-19.78-31.56-40.23-64.2-73.79-82.36-71.18-38.52-123.82,18.06-166.34,67.8,1.48.65,2.83,1.59,3.99,2.79,2.28,2.37,3.52,5.48,3.5,8.77,20.94-24.58,42.67-49.46,67.38-64.73,28.92-17.87,55.99-18.83,85.2-3.03,30.51,16.51,50.02,47.65,68.89,77.77,2.19,3.49,4.38,6.99,6.59,10.47-1.31,1.6-2.63,3.19-3.95,4.78-34.05,41.02-69.34,77.59-126.55,74.7-55.15-2.81-84.57-39.73-115.56-78.99,2.48-2.82,4.98-5.71,7.51-8.66-.67.11-1.35.18-2.04.18-.08,0-.16,0-.24,0-3.35-.06-6.48-1.43-8.8-3.84-.57-.59-1.08-1.24-1.52-1.91-1.08,1.25-2.16,2.5-3.23,3.73-1.89-2.37-3.81-4.75-5.73-7.11-20.97-25.72-43.27-37.58-68.17-36.24-25.95,1.39-49.69,19.56-56.45,43.21-3.44,12.03-1.78,24.95,4.68,36.35,7.29,12.87,19.64,22.44,33.9,26.26,1.5.4,3.02.74,4.54,1.02,3.34.61,6.72.91,10.14.91,20.61,0,42.62-11.03,65.59-32.9,3.6-3.43,7.22-7.13,10.87-11.05,32.39,41.02,63.61,79.17,123.86,82.23,2.46.12,4.87.19,7.26.19,58.96,0,95.25-37.63,130.12-79.63.44-.53.88-1.06,1.32-1.6,22.04,33.07,47.95,62.76,92.7,69.42,31.6,4.7,64.28-4.04,87.44-23.36,19.01-15.87,29.47-37.04,30.25-61.22ZM349.12,140.66c-23.55,22.42-45.17,32.04-64.27,28.56h0c-1.16-.21-2.33-.48-3.48-.78-10.7-2.86-20.36-10.35-25.83-20.01-3.33-5.88-6.63-15.19-3.48-26.22,5.26-18.4,23.97-32.56,44.47-33.66.98-.05,1.95-.08,2.92-.08,19.26,0,37.06,10.33,54.31,31.48,2.36,2.89,4.71,5.83,7.03,8.75-3.95,4.29-7.84,8.31-11.68,11.97ZM803.33,176.28c-20.01,16.7-49.52,24.53-77.04,20.44-41.05-6.1-64.41-34.19-85.88-67.03,19.19-23.41,39.05-47.51,62.4-64.04,12.77-9.04,32.78-19.87,55.57-20.13.24,0,.47,0,.71,0,17.46,0,34.1,7.19,46.93,20.29,14.99,15.31,23.52,37.35,22.83,58.95-.65,20.31-9.48,38.13-25.52,51.51Z"/>
    <path class="cls-8" d="M533.54,168.27c-3.5-3.63-8.17-5.46-12.86-5.46-3.71,0-7.42,1.17-10.56,3.48,1.94.99,3.74,2.29,5.29,3.91,3.67,3.82,5.64,8.83,5.54,14.13-.1,5.04-2.07,9.75-5.55,13.36,6.01,1.85,12.82.48,17.66-4.18,7.09-6.82,7.3-18.14.48-25.23Z"/>
    <path class="cls-11" d="M512.78,172.74c-1.62-1.69-3.53-2.94-5.58-3.76-.65-.26-1.31-.47-1.98-.64-.71-.18-1.42-.32-2.14-.41-.65-.08-1.29-.13-1.94-.13-2.95,0-5.89.81-8.49,2.41,7.17,7.65,6.89,19.7-.69,26.99,0,0-.02.02-.03.02,4.83,3.35,11.1,3.77,16.3,1.23.65-.32,1.28-.69,1.89-1.1.57-.38,1.12-.81,1.65-1.28.19-.17.39-.32.57-.5,6.42-6.18,6.61-16.43.44-22.85Z"/>
    <path class="cls-2" d="M489.83,172.56s-.05-.05-.08-.07c-.43-.44-.89-.85-1.36-1.23-.48-.39-.99-.75-1.51-1.07-2.52-1.58-5.39-2.39-8.27-2.39s-5.77.8-8.3,2.39c.84,2.12,1.26,4.41,1.22,6.76-.09,4.66-1.99,9-5.34,12.23-.46.45-.95.86-1.45,1.24.69,1.35,1.58,2.6,2.66,3.72,5,5.19,12.75,6.14,18.77,2.79.54-.3,1.06-.63,1.56-1,.49-.36.97-.74,1.42-1.16.08-.07.17-.14.25-.22,6.18-5.95,6.37-15.82.42-22Z"/>
    <path class="cls-9" d="M467.29,172.72c-.19-.65-.43-1.28-.72-1.9-.26-.56-.56-1.12-.9-1.65-.47-.73-1.02-1.44-1.65-2.09-2.55-2.65-5.97-4.14-9.65-4.21-.09,0-.18,0-.27,0-3.57,0-6.95,1.36-9.53,3.85-2.65,2.55-4.14,5.97-4.21,9.65-.07,3.67,1.29,7.15,3.84,9.8,4.26,4.43,10.79,5.37,16.03,2.78.56-.28,1.1-.61,1.62-.97.55-.38,1.09-.8,1.59-1.26.07-.06.14-.12.21-.18,3.82-3.68,5.04-9.05,3.64-13.81Z"/>
    <path class="cls-4" d="M428.64,146.05c-.08,0-.16,0-.25,0-3.26,0-6.34,1.24-8.7,3.51-2.42,2.33-3.78,5.45-3.85,8.81-.06,3.35,1.18,6.53,3.51,8.95,2.33,2.42,5.45,3.78,8.81,3.85,3.36.05,6.53-1.18,8.95-3.51,2.42-2.33,3.78-5.45,3.85-8.81.06-3.35-1.18-6.53-3.51-8.95-2.33-2.42-5.45-3.78-8.81-3.85Z"/>
    <path class="cls-7" d="M412.86,126.63c-2.01-2.09-4.71-3.26-7.6-3.32-.07,0-.14,0-.21,0-2.81,0-5.47,1.07-7.51,3.03-2.09,2.01-3.26,4.71-3.32,7.6s1.02,5.64,3.03,7.72,4.71,3.26,7.6,3.32c2.87.06,5.64-1.02,7.72-3.03,4.3-4.14,4.44-11.02.29-15.32Z"/>
    <path class="cls-5" d="M390.03,101.93c-1.11-1.15-2.45-1.95-3.88-2.38-.86-.26-1.74-.39-2.63-.39-2.26,0-4.52.84-6.27,2.52-2.89,2.79-3.52,7.05-1.85,10.48.4.83.94,1.61,1.61,2.31,1.67,1.74,3.93,2.72,6.34,2.77,2.4.05,4.7-.85,6.44-2.53,1.74-1.67,2.72-3.93,2.77-6.34.05-2.41-.85-4.7-2.53-6.44Z"/>
    <path class="cls-6" d="M365.94,77.85c-1.47-1.53-3.45-2.39-5.58-2.43-.05,0-.1,0-.16,0-2.07,0-4.02.79-5.51,2.22-1.53,1.47-2.39,3.45-2.43,5.58s.75,4.14,2.22,5.67c1.47,1.53,3.45,2.39,5.58,2.43,2.13.05,4.13-.75,5.67-2.22,1.53-1.47,2.39-3.45,2.43-5.58s-.75-4.14-2.22-5.67Z"/>
    <path class="cls-3" d="M336.2,59.59c-1.42-1.48-3.32-2.22-5.23-2.22s-3.63.67-5.03,2.02c-2.88,2.77-2.97,7.38-.2,10.26,1.34,1.4,3.15,2.19,5.09,2.22,1.96.04,3.77-.68,5.17-2.03,2.88-2.77,2.97-7.38.2-10.26Z"/>
    <path class="cls-1" d="M304.91,53.25c-1.13-1.17-2.64-1.83-4.27-1.86-.04,0-.08,0-.12,0-1.58,0-3.08.6-4.22,1.7-2.42,2.33-2.49,6.19-.16,8.61,1.13,1.17,2.64,1.83,4.27,1.86,1.64.05,3.17-.57,4.34-1.7s1.83-2.64,1.86-4.27-.57-3.17-1.7-4.34Z"/>
  </g>
  <g>
    <path class="cls-10" d="M40.27,553.52c-8.51-5.19-15.07-12.56-19.69-22.13-4.62-9.56-6.93-20.67-6.93-33.31s2.31-23.74,6.93-33.31c4.62-9.56,11.18-16.94,19.69-22.13,8.51-5.19,18.36-7.78,29.54-7.78s20.75,2.59,29.18,7.78c8.43,5.19,14.95,12.56,19.57,22.13,4.62,9.57,6.93,20.67,6.93,33.31s-2.31,23.75-6.93,33.31c-4.62,9.57-11.15,16.94-19.57,22.13-8.43,5.19-18.16,7.78-29.18,7.78s-21.03-2.59-29.54-7.78ZM99.59,535.16c7.05-8.67,10.58-21.03,10.58-37.08s-3.57-28.24-10.7-37.08c-7.13-8.83-17.02-13.25-29.66-13.25s-22.77,4.42-29.91,13.25c-7.13,8.84-10.7,21.19-10.7,37.08s3.48,28.61,10.46,37.2c6.97,8.59,16.94,12.89,29.91,12.89s22.98-4.33,30.03-13.01Z"/>
    <path class="cls-10" d="M243.29,442.77c8.18,5.27,14.55,12.73,19.09,22.37,4.54,9.65,6.81,20.79,6.81,33.43s-2.23,23.67-6.69,33.07c-4.46,9.4-10.82,16.7-19.09,21.88-8.27,5.19-17.75,7.78-28.45,7.78s-18.93-2.23-26.14-6.69c-7.21-4.46-12.6-10.9-16.17-19.33v76.83h-14.59v-140.53c0-12.64-.65-23.91-1.95-33.8h14.1l1.95,23.83c3.56-8.59,9.03-15.2,16.41-19.82,7.37-4.62,16.17-6.93,26.38-6.93s20.14,2.64,28.33,7.9ZM242.92,535.16c7.13-8.67,10.7-20.87,10.7-36.59s-3.57-28.33-10.7-37.32c-7.13-9-17.02-13.49-29.66-13.49s-22.94,4.38-29.91,13.13c-6.97,8.75-10.45,21.15-10.45,37.2s3.48,28.2,10.45,36.96c6.97,8.75,16.86,13.13,29.66,13.13s22.77-4.33,29.91-13.01Z"/>
    <path class="cls-10" d="M322.43,449.7v72.46c0,9.73,1.86,16.45,5.59,20.18,3.73,3.73,9.24,5.59,16.53,5.59,4.54,0,8.91-.73,13.13-2.19v13.37c-5.19,1.3-10.46,1.95-15.8,1.95-10.7,0-19.09-3-25.16-9-6.08-6-9.12-14.99-9.12-26.99v-75.37h-24.07v-11.91h24.07v-32.34l14.83-5.59v37.93h35.98v11.91h-35.98Z"/>
    <path class="cls-10" d="M401.2,387.46v18.96h-19.69v-18.96h19.69ZM383.7,437.79h14.59v121.81h-14.59v-121.81Z"/>
    <path class="cls-10" d="M610.79,482.04v77.56h-14.83v-76.59c0-12.32-2.19-21.27-6.56-26.87s-11.35-8.39-20.91-8.39c-11.18,0-19.98,3.73-26.38,11.18-6.41,7.46-9.6,17.59-9.6,30.39v70.27h-14.83v-76.59c0-12.32-2.23-21.27-6.69-26.87-4.46-5.59-11.47-8.39-21.03-8.39-11.02,0-19.82,3.73-26.38,11.18-6.56,7.46-9.85,17.59-9.85,30.39v70.27h-14.59v-88.02c0-12.64-.65-23.91-1.95-33.8h14.1l1.95,21.88c3.4-8.1,8.47-14.26,15.2-18.48,6.72-4.21,14.55-6.32,23.46-6.32,19.61,0,32.17,7.94,37.69,23.83,3.4-7.45,8.71-13.29,15.93-17.51,7.21-4.21,15.52-6.32,24.92-6.32,26.9,0,40.36,15.72,40.36,47.17Z"/>
    <path class="cls-10" d="M753.75,437.79v121.81h-14.83v-23.34c-3.57,8.11-8.96,14.31-16.17,18.6-7.21,4.3-15.85,6.44-25.89,6.44-10.86,0-20.39-2.55-28.57-7.66-8.19-5.11-14.51-12.4-18.96-21.88-4.46-9.48-6.69-20.55-6.69-33.19s2.27-23.79,6.81-33.43c4.54-9.64,10.9-17.1,19.09-22.37,8.18-5.27,17.63-7.9,28.33-7.9,9.89,0,18.44,2.11,25.65,6.32,7.21,4.22,12.68,10.38,16.41,18.48v-21.88h14.83ZM728.46,535.04c6.97-8.75,10.46-21.07,10.46-36.96s-3.49-28.45-10.46-37.2c-6.97-8.75-16.86-13.13-29.66-13.13s-22.77,4.5-29.91,13.49c-7.13,9-10.7,21.44-10.7,37.32s3.56,27.92,10.7,36.59c7.13,8.67,17.18,13.01,30.15,13.01s22.45-4.38,29.42-13.13Z"/>
    <path class="cls-10" d="M898.41,437.79v122.3c0,17.67-4.38,31.04-13.13,40.12-8.75,9.08-21.64,13.62-38.66,13.62-18.16,0-33.96-4.38-47.41-13.13l2.92-12.89c7.94,4.7,15.23,8.02,21.88,9.97,6.64,1.95,14.26,2.92,22.86,2.92,12.16,0,21.35-3.32,27.6-9.97,6.24-6.65,9.36-16.37,9.36-29.18v-31.37c-3.73,8.27-9.24,14.63-16.53,19.09-7.29,4.46-16.05,6.69-26.26,6.69s-20.18-2.55-28.45-7.66-14.71-12.24-19.33-21.4c-4.62-9.16-6.93-19.65-6.93-31.49s2.31-22.57,6.93-31.73c4.62-9.16,11.06-16.25,19.33-21.27,8.27-5.02,17.75-7.54,28.45-7.54s18.92,2.11,26.14,6.32c7.21,4.22,12.68,10.38,16.41,18.48v-21.88h14.83ZM872.76,529.94c7.21-8.43,10.82-19.94,10.82-34.53s-3.61-26.38-10.82-34.89c-7.21-8.51-17.14-12.76-29.78-12.76s-22.85,4.25-30.15,12.76c-7.29,8.51-10.94,20.14-10.94,34.89s3.65,26.3,10.94,34.65c7.29,8.35,17.34,12.52,30.15,12.52s22.57-4.21,29.78-12.64Z"/>
    <path class="cls-10" d="M956.28,387.46v18.96h-19.69v-18.96h19.69ZM938.77,437.79h14.59v121.81h-14.59v-121.81Z"/>
    <path class="cls-10" d="M1013.41,553.52c-8.59-5.19-15.24-12.52-19.94-22-4.7-9.48-7.05-20.46-7.05-32.95s2.35-23.79,7.05-33.43c4.7-9.64,11.43-17.1,20.18-22.37,8.75-5.27,18.88-7.9,30.39-7.9,8.27,0,16.17,1.42,23.71,4.26,7.54,2.84,13.74,6.77,18.6,11.79l-5.84,11.67c-6.32-5.19-12.36-8.95-18.11-11.31-5.76-2.35-11.71-3.53-17.87-3.53-13.13,0-23.5,4.5-31.12,13.49-7.62,9-11.43,21.44-11.43,37.32s3.77,27.72,11.31,36.47c7.54,8.75,17.95,13.13,31.24,13.13,6.16,0,12.12-1.17,17.87-3.53,5.75-2.35,11.79-6.04,18.11-11.06l5.84,11.43c-5.19,5.03-11.63,9-19.33,11.91-7.7,2.92-15.52,4.38-23.46,4.38-11.51,0-21.56-2.59-30.15-7.78Z"/>
  </g>
</svg>
