<svg width="1280" height="226" version="1.0" xmlns:xlink="http://www.w3.org/1999/xlink" xmlns="http://www.w3.org/2000/svg"><defs><clipPath id="b"><use xlink:href="#a" style="overflow:visible" width="100%" height="100%"/></clipPath><path id="a" d="M224.121 157.674v163.422h162.747V157.674zm93.624 161.313c-.282.043-.568.069-.851.11h-21.16v-24.119a55.83 55.83 0 0 0 9.738.858c4.134 0 8.249-.463 12.273-1.363z"/></defs><path class="st1" d="M172.883 123.521c-.55-46.594-39.1-84.336-86.428-84.336C38.784 39.185 0 77.47 0 124.528c0 47.056 38.784 85.339 86.455 85.339 11.91 0 23.449-2.352 34.297-6.982 6.077-2.597 8.874-9.564 6.245-15.566-2.63-6-9.693-8.763-15.767-6.164-7.823 3.34-16.16 5.035-24.775 5.035-34.447 0-62.47-27.66-62.47-61.662 0-34.004 28.023-61.666 62.47-61.666 34.446 0 62.468 27.662 62.468 61.666 0 .18.046.348.054.527v84.995h23.982v-86.53z" style="fill:#18a5a7;fill-opacity:1;stroke-width:1.08061" transform="translate(9.071 7.975)"/><g style="fill:#084059;fill-opacity:1"><path class="st0" style="fill:#084059;fill-opacity:1;stroke-width:1.08061" d="M253.746 47.993h23.978v162.056h-23.978zm24.762-35.772c0 6.75-5.544 12.222-12.38 12.222-6.839 0-12.382-5.471-12.382-12.222 0-6.75 5.543-12.221 12.381-12.221 6.837 0 12.38 5.471 12.38 12.221" transform="translate(9.071 7.975)"/><path style="fill:#084059;fill-opacity:1" d="M384.798 238.363c-.506-43.474-35.887-78.688-79.326-78.688-43.754 0-79.351 35.72-79.351 79.627 0 43.905 35.597 79.624 79.351 79.624 10.931 0 21.522-2.194 31.479-6.514 5.578-2.423 8.145-8.924 5.732-14.524-2.415-5.597-8.897-8.176-14.473-5.751-7.179 3.117-14.831 4.698-22.738 4.698-31.617 0-57.336-25.808-57.336-57.533 0-31.726 25.719-57.536 57.336-57.536 31.616 0 57.335 25.81 57.335 57.536 0 .168.042.325.05.492v79.303h22.011v-80.734z" clip-path="url(#b)" transform="matrix(1.08952 0 0 1.07178 -164.161 -123.976)"/></g><path style="font-size:156.047px;line-height:1.25;font-family:'Sharp Sans';-inkscape-font-specification:'Sharp Sans';letter-spacing:0;word-spacing:0;fill:#084059;fill-opacity:1;stroke-width:1.21912" d="M813.178 65.115c-6.866 0-12.641.573-17.323 1.717-4.577 1.144-8.269 3.12-11.078 5.93-2.704 2.705-4.681 6.344-5.93 10.922-1.144 4.577-1.716 10.3-1.716 17.166v2.964h-13.889v19.35h13.889v64.916h21.377v-64.916h20.287v-19.35h-20.287v-4.056c0-3.225.156-5.774.469-7.647.312-1.976 1.04-3.485 2.185-4.525 1.248-1.144 2.964-1.874 5.149-2.186 2.184-.416 5.149-.623 8.894-.623h3.59V65.115h-5.617zm-470.48 9.051v20.285h31.677v93.63h21.69V94.45h31.365V74.166h-84.733zm376.384 27.62c-5.202 0-9.936.728-14.201 2.185-4.161 1.352-7.75 3.224-10.768 5.617-3.017 2.393-5.357 5.203-7.021 8.428-1.665 3.225-2.496 6.605-2.496 10.142 0 4.474.884 8.165 2.652 11.078 1.769 2.81 4.056 5.151 6.865 7.024 2.913 1.872 6.139 3.329 9.676 4.369 3.641 1.04 7.23 1.924 10.768 2.652 2.704.52 5.253 1.04 7.646 1.56s4.472 1.146 6.24 1.874c1.873.624 3.33 1.456 4.37 2.496 1.04.936 1.56 2.186 1.56 3.746 0 2.497-1.143 4.68-3.432 6.553-2.288 1.768-5.619 2.654-9.988 2.654-9.155 0-15.604-3.798-19.35-11.393l-20.753 8.116c3.329 6.762 8.165 11.962 14.511 15.603 6.45 3.537 14.722 5.307 24.813 5.307 6.138 0 11.442-.834 15.916-2.498 4.577-1.665 8.376-3.796 11.392-6.397 3.017-2.704 5.253-5.67 6.71-8.894 1.456-3.33 2.185-6.66 2.185-9.988 0-4.474-.936-8.218-2.809-11.235a22.467 22.467 0 0 0-7.336-7.334c-2.912-1.976-6.189-3.485-9.83-4.525a131.78 131.78 0 0 0-10.611-2.655c-6.138-1.352-10.87-2.547-14.2-3.587-3.328-1.145-4.993-3.069-4.993-5.774 0-2.393.988-4.317 2.965-5.773 2.08-1.56 5.254-2.342 9.519-2.342 3.953 0 7.23.781 9.83 2.342 2.705 1.56 4.943 3.744 6.711 6.552l19.66-7.959c-3.953-5.617-8.738-9.986-14.355-13.107-5.618-3.225-12.9-4.838-21.846-4.838zm-183.355.312c-9.467 0-17.425 1.821-23.875 5.463-6.346 3.537-11.653 8.112-15.918 13.73l19.818 9.832c1.977-3.537 4.578-6.243 7.803-8.115 3.225-1.977 7.23-2.965 12.015-2.965 6.138 0 10.716 1.404 13.733 4.213 3.017 2.809 4.525 6.503 4.525 11.08v1.092H531.67c-11.756 0-21.015 2.496-27.777 7.49-6.762 4.993-10.143 11.913-10.143 20.756 0 7.49 2.549 13.574 7.646 18.256 5.202 4.577 12.431 6.867 21.69 6.867 6.658 0 12.692-1.352 18.101-4.057 5.514-2.705 9.78-6.242 12.797-10.611v12.951h20.754v-51.809c0-10.715-3.38-19.089-10.142-25.123-6.762-6.033-16.386-9.05-28.87-9.05zm101.742 0c-5.306 0-10.09 1.092-14.356 3.277a28.746 28.746 0 0 0-10.299 9.05v-10.61H591.28v84.265h21.69v-46.502c0-6.554 1.717-11.6 5.15-15.137 3.433-3.64 7.698-5.46 12.795-5.46 5.722 0 9.988 1.767 12.797 5.304 2.913 3.433 4.37 8.168 4.37 14.201v47.594h22.001V137.21c0-11.027-2.965-19.61-8.894-25.748-5.826-6.242-13.732-9.363-23.72-9.363zm230.48 0c-6.242 0-12.067 1.145-17.476 3.433-5.41 2.289-10.092 5.41-14.045 9.364-3.953 3.953-7.075 8.633-9.364 14.043-2.184 5.305-3.275 11.028-3.275 17.166 0 6.137 1.039 11.858 3.12 17.164 2.08 5.305 5.047 9.935 8.896 13.888 3.953 3.953 8.685 7.075 14.199 9.364 5.514 2.184 11.652 3.277 18.414 3.277 9.363 0 17.112-1.77 23.25-5.307 6.138-3.537 11.34-8.27 15.605-14.199l-17.632-10.299a24.201 24.201 0 0 1-8.272 8.27c-3.433 1.976-7.645 2.965-12.639 2.965-6.241 0-11.496-1.561-15.761-4.682-4.162-3.225-6.97-7.594-8.426-13.107h66.943v-8.116c0-6.242-1.092-12.014-3.277-17.32-2.185-5.306-5.202-9.831-9.05-13.576-3.85-3.85-8.428-6.866-13.733-9.051-5.306-2.185-11.13-3.277-17.477-3.277zm-391.52.156c-5.409 0-10.143 1.197-14.2 3.59-3.954 2.288-6.97 5.928-9.051 10.922v-12.952h-21.223v84.266h21.379v-44.473c0-7.074 1.665-12.12 4.994-15.136 3.33-3.121 7.75-4.682 13.264-4.682 2.393 0 4.578.311 6.554.936 1.977.52 3.536 1.197 4.68 2.029l7.803-21.223c-1.769-.936-3.902-1.715-6.399-2.34-2.392-.624-4.991-.937-7.8-.937zm493.575 0c-5.41 0-10.144 1.197-14.201 3.59-3.953 2.288-6.968 5.928-9.05 10.922v-12.952h-21.222v84.266h21.377v-44.473c0-7.074 1.665-12.12 4.994-15.136 3.33-3.121 7.75-4.682 13.264-4.682 2.393 0 4.578.311 6.555.936 1.976.52 3.537 1.197 4.681 2.029l7.803-21.223c-1.768-.936-3.902-1.715-6.398-2.34-2.393-.624-4.994-.937-7.803-.937zm-102.055 18.101c5.618 0 10.352 1.405 14.201 4.213 3.85 2.705 6.501 6.71 7.957 12.016h-44.941c1.769-4.994 4.63-8.947 8.584-11.86 3.953-2.912 8.686-4.369 14.2-4.369zM534.166 152.19h19.818v4.526a22.758 22.758 0 0 1-4.213 6.242 25.948 25.948 0 0 1-5.775 4.836 28.36 28.36 0 0 1-7.021 3.121 27.174 27.174 0 0 1-7.647 1.094c-8.739 0-13.107-3.07-13.107-9.207 0-3.33 1.352-5.93 4.056-7.803 2.81-1.873 7.44-2.809 13.889-2.809z"/><path style="font-size:156.047px;line-height:1.25;font-family:'Sharp Sans';-inkscape-font-specification:'Sharp Sans';letter-spacing:0;word-spacing:0;fill:#18a5a7;fill-opacity:1;stroke-width:1.21912" d="M1182.605 64.959V188.08h21.223v-11.703c2.809 4.265 6.555 7.594 11.236 9.986 4.682 2.289 9.832 3.434 15.45 3.434 5.201 0 10.195-.988 14.98-2.965 4.89-2.08 9.206-5.045 12.951-8.894 3.745-3.85 6.762-8.427 9.051-13.733 2.289-5.41 3.434-11.496 3.434-18.258 0-6.658-1.145-12.692-3.434-18.101-2.185-5.41-5.15-10.04-8.894-13.889-3.746-3.85-8.064-6.762-12.954-8.738a38.66 38.66 0 0 0-15.29-3.121c-5.722 0-10.872 1.197-15.45 3.59-4.473 2.392-8.115 5.616-10.924 9.673V64.96h-21.379zm-185.07 9.207V188.08h74.746v-21.379h-52.588V74.166h-22.158zm129.52 27.932c-9.467 0-17.427 1.821-23.877 5.463-6.346 3.537-11.651 8.112-15.916 13.73l19.818 9.832c1.977-3.537 4.578-6.243 7.803-8.115 3.225-1.977 7.23-2.965 12.015-2.965 6.138 0 10.714 1.404 13.73 4.213 3.018 2.809 4.526 6.503 4.526 11.08v1.092h-22.158c-11.755 0-21.013 2.496-27.775 7.49-6.762 4.993-10.145 11.913-10.145 20.756 0 7.49 2.55 13.574 7.647 18.256 5.201 4.577 12.432 6.867 21.691 6.867 6.658 0 12.692-1.352 18.102-4.057 5.513-2.705 9.778-6.242 12.794-10.611v12.951h20.756v-51.809c0-10.715-3.382-19.089-10.144-25.123-6.762-6.033-16.384-9.05-28.867-9.05zm99.088 19.974c3.225 0 6.241.625 9.05 1.873 2.81 1.249 5.256 2.964 7.336 5.149 2.185 2.08 3.848 4.577 4.993 7.49 1.248 2.809 1.873 5.878 1.873 9.207 0 3.329-.625 6.45-1.873 9.363a22.514 22.514 0 0 1-4.993 7.49c-2.08 2.081-4.527 3.746-7.336 4.995-2.809 1.248-5.825 1.87-9.05 1.87-3.33 0-6.449-.622-9.362-1.87-2.809-1.249-5.253-2.914-7.334-4.994a26.202 26.202 0 0 1-4.994-7.49c-1.144-2.914-1.717-6.035-1.717-9.364 0-3.225.573-6.294 1.717-9.207 1.248-2.913 2.914-5.41 4.994-7.49a22.813 22.813 0 0 1 7.334-5.149c2.913-1.248 6.033-1.873 9.362-1.873zm-100.649 30.117h19.817v4.526a22.758 22.758 0 0 1-4.213 6.242 25.937 25.937 0 0 1-5.774 4.836 28.36 28.36 0 0 1-7.021 3.121 27.174 27.174 0 0 1-7.647 1.094c-8.738 0-13.11-3.07-13.11-9.207 0-3.33 1.355-5.93 4.06-7.803 2.808-1.873 7.438-2.809 13.888-2.809z"/></svg>
